<?xml version="1.0" encoding="UTF-8"?>
<svg xmlns="http://www.w3.org/2000/svg" xmlns:xlink="http://www.w3.org/1999/xlink" viewBox="1690 0 814 1170.35">
  <defs>
    <style>
      .cls-1 {
        fill: #9f3f52;
      }

      .cls-2 {
        fill: #fff7f5;
      }

      .cls-3 {
        fill: none;
      }

      .cls-4 {
        isolation: isolate;
      }

      .cls-5 {
        fill: #193030;
      }

      .cls-6 {
        fill: #72979d;
      }

      .cls-7 {
        mix-blend-mode: multiply;
      }

      .cls-8 {
        clip-path: url(#clippath);
      }

      .cls-9 {
        fill: #bcded6;
      }

      .cls-10 {
        fill: #f1f1f1;
      }
    </style>
    <clipPath id="clippath">
      <rect class="cls-3" x="99.02" width="2405.42" height="1127.31"/>
    </clipPath>
  </defs>
  <g class="cls-4">
    <g id="OBJECTS">
      <g class="cls-8">
        <g>
          <path class="cls-2" d="M509.65,420.07c-85.54-43.68-183.02-64.5-278.93-59.95-23.51,1.11-47.17,3.51-70.29,7.98-22.43,4.34-43.98,12-61.77,26.71-33.74,27.91-49.04,73.23-61.64,113.64C7.14,604.27-1.42,705.68.19,805.63c.82,50.96,4.28,101.95,9.6,152.63,5.08,48.45,12.27,98.53,31.84,143.53,7.75,17.83,18.31,35.24,33.21,48.02,16.82,14.43,37.18,20.11,59.09,20.48,26.2.44,52.66-2.22,78.81-3.59,27.12-1.42,54.26-2.7,81.38-4.28,27.59-1.61,55.2-3.09,82.78-4.88,24.36-1.58,51.05-.76,74.4-8.75,9.55-3.27,19.51-8.06,25.81-16.23,6.4-8.32,7.04-18.76,6.56-28.86-1.01-21.57-4.9-43.55-15.03-62.82-19.45-37.02-60.43-53.19-99.86-58.25-49.34-6.32-101.52,5-149.49-11.08-18.74-6.28-37.33-17.57-46.47-35.76-10.9-21.7-4.28-46.84,7.02-66.91,22.77-40.45,67-65.04,82.3-110.38,6.39-18.93,6.79-40.07-3.18-57.85-9.32-16.63-25.75-27.52-42.59-35.51-9.04-4.29-18.41-7.69-27.66-11.46-11.36-4.62-21.17-13.29-12.23-25.64,6.63-9.16,18.02-15.04,28.05-19.73,10.45-4.89,21.54-8.33,32.71-11.12,22.86-5.7,46.31-8.6,69.35-13.4,25.14-5.24,49.94-12.13,74.17-20.63,42.44-14.88,87.24-34.15,112.65-73.32,11.04-17.01,16.73-37.3,15.15-57.55,0-.05-.02-.08-.02-.13,4.67-2.01,6.88-9.15,1.12-12.09Z"/>
          <path class="cls-6" d="M2242.42,546.57c18.24,13.42,28.54,32.36,33.75,54.08,5.06,21.11,6.25,42.95,11.57,64,10.01,39.65,39.5,70.46,78.13,83.64,41.82,14.26,89.37,4.57,125.27-20.15,18.45-12.7,32.68-29.16,39.13-50.9,6.89-23.22,6.5-48.69,5.08-72.63-1.52-25.66-5.49-51.08-9.22-76.49-3.62-24.67-6.09-49.44-9.38-74.15-2.79-20.97-8.74-42.12-24.47-57.19-15.49-14.84-36.51-22.06-57-26.86-100.72-23.62-203.66,1.3-304.5,10.52-9.02.83-18.06,1.52-27.1,2.06.12-.31.25-.62.37-.93.7-1.74-2.26-3-3.05-1.29-.37.81-.75,1.62-1.12,2.43-2.46.14-4.91.27-7.37.38-6.88.32-6.92,11.05,0,10.74.83-.04,1.65-.09,2.48-.13-7.17,16.79-12.9,34.42-11.83,52.82,1.18,20.24,10.61,37.74,28.15,48.27,20.66,12.41,45.84,17.33,68.69,24.18,21.78,6.53,43.91,13.94,62.42,27.56Z"/>
          <path class="cls-1" d="M2519.18,990.73c-13.42-27.37-41.65-44.52-71.18-49.15-32.14-5.04-64.28,4.58-91.4,21.8-13.98,8.88-26.73,19.65-38.23,31.56-11.6,12.02-22.42,25.87-37.83,33.2-18.91,9-40.8,6.27-61.06,7.57-18.47,1.19-35.57,6.26-50.63,17.28-31.58,23.1-45.57,59.5-57.07,95.45-1.57.22-3.14.44-4.72.69-7.34,1.14-4.22,12.29,3.08,11.16,77.31-11.91,155.23,1.89,232.63,5.14,37.07,1.56,74.44.65,110.94-6.57,16.76-3.31,36.87-6.78,50.53-17.76,13.34-10.72,20.01-29.09,23.66-45.28,3.96-17.58,4.55-35.82,3.37-53.75-1.16-17.65-4.24-35.35-12.09-51.35Z"/>
          <g class="cls-7">
            <path class="cls-9" d="M2542.54,718.77c-50.93-12.5-102.49-37.43-136.4-78.8-9.71-11.84-16.02-25.46-14.62-41.06,1.19-13.2,6.19-26.46,11.78-38.39,10.09-21.53,24.68-40.78,42.47-56.53,20.7-18.34,45.53-31.69,72.21-38.96,1.24-.34.72-2.18-.53-1.91-49.36,10.66-92.22,45.12-115.17,89.91-11.68,22.79-21.61,50.78-9.05,75.14,6.25,12.14,16.14,22.14,26.1,31.28,10.33,9.47,21.44,18.12,33.15,25.81,26.78,17.58,57.5,31.17,89.06,37.16,2.36.45,3.39-3.06,1-3.64Z"/>
            <path class="cls-9" d="M2529.24,697.86c-19.86-7.52-39.31-15.17-57.71-25.9-17.38-10.14-35.44-21.86-48-37.86-28.22-35.92-3.44-79.16,24.19-106.68,16.68-16.61,35.7-30,56.11-41.61,1.77-1.01.21-3.6-1.58-2.71-19.39,9.73-37.2,22.84-52.92,37.75-15.14,14.36-28.79,30.89-36.56,50.46-7.11,17.91-7.95,37.79,1.37,55.08,9.74,18.06,27.54,30.72,44.46,41.5,21.39,13.62,45.46,25.52,70.23,31.45.97.23,1.32-1.13.41-1.48Z"/>
            <path class="cls-9" d="M2536.74,691.89c-20-12.72-39.38-26.06-57.59-41.29-8.73-7.3-17.24-14.89-25.39-22.84-7.46-7.28-14.81-15.19-18.84-24.95-9.52-23.05,6.45-45.25,21.57-61.42,15.96-17.07,34.1-31.09,53.24-44.35.93-.64.11-2.09-.89-1.53-21.51,12.07-41.31,28.72-57.91,46.9-13.75,15.06-26.91,35.34-21.21,56.63,5.71,21.35,27.03,37.37,43.02,51.03,19.4,16.57,40.15,32.02,62.15,44.97,2.04,1.2,3.83-1.9,1.85-3.16Z"/>
            <path class="cls-9" d="M2501.43,530.62c-11.45,2.58-22.47,10.36-30.9,18.3-8.1,7.62-16.41,17.66-18.09,29-1.84,12.41,5.87,24.08,12.56,33.83,7.91,11.52,17.35,21.76,28.15,30.62.65.54,1.59-.36.95-.95-8.98-8.21-17.2-17.24-24.21-27.21-6.55-9.32-15.11-21.24-14.65-33.08.47-12.06,9.81-22.93,18.31-30.72,8.72-7.99,18.44-12.27,28.88-17.43,1.36-.67.38-2.67-1-2.36Z"/>
            <path class="cls-9" d="M2511.91,630.6c-14.55-9.52-35.36-18.89-41.43-36.63-6.86-20.06,16.65-35.2,31.24-43.5.97-.55.3-2.31-.78-1.86-15.7,6.55-37.73,22.06-35.09,41.66,1.31,9.73,8.19,17.79,15.35,24.01,8.62,7.48,18.75,14.25,28.97,19.3,1.98.98,3.6-1.75,1.74-2.97Z"/>
          </g>
          <g class="cls-7">
            <path class="cls-10" d="M202.17,863.65c-20.11-24.03-50.42-36.02-78.61-47.7-18.38-7.62-36.95-14.77-55.67-21.51-18.5-6.66-37.49-14.31-56.74-18.41-1.68-.36-2.22,1.89-.69,2.52,14.74,6.08,30.4,10.25,45.46,15.52,15.11,5.28,30.12,10.84,45.02,16.68,28.52,11.17,59.55,21.72,83.9,40.85,22.58,17.74,37.03,44.36,30.6,73.48-6.43,29.15-28.57,50.84-52.98,66.27-29.29,18.51-62.45,33.44-97.03,37.83-1.03.13-1.09,1.74,0,1.66,31.73-2.27,62.15-16.28,89.46-31.83,25.03-14.26,48.56-33.35,59.53-60.79,10.38-25.96,5.63-53.22-12.24-74.58Z"/>
            <path class="cls-10" d="M216.01,853.94c-17.37-25.52-44.13-43.34-70.91-57.73-38.14-20.51-78.74-36.7-120.6-47.83-2.56-.68-3.64,3.26-1.09,3.96,35.09,9.68,69.26,22.19,102.01,38.12,27.88,13.56,56.06,29.14,77.19,52.29,21.63,23.71,31.49,54.56,23.94,86.18-7.44,31.15-28.05,57.7-53.6,76.38-30.54,22.33-66.25,34.31-101.53,46.81-.68.24-.41,1.3.3,1.1,62.28-17.89,132.63-46.82,155.29-113.44,9.91-29.15,6.39-60.28-11-85.83Z"/>
            <path class="cls-10" d="M168.84,893.28c-19-16.24-40.07-30.14-62.37-41.41-24.5-12.39-52.28-23.8-79.67-27.37-1.74-.23-1.99,2.52-.4,2.99,22.43,6.59,44.49,12.15,65.9,21.85,20.24,9.17,39.55,20.38,57.48,33.51,16.3,11.94,46.49,31.45,40.95,55.39-2.67,11.52-12.26,20.36-20.85,27.82-8.91,7.74-18.6,14.58-28.84,20.45-23.4,13.42-48.88,21.06-75.59,24.2-.77.09-.81,1.28,0,1.24,24.31-1.42,48.34-8.5,70.01-19.49,10.74-5.45,20.91-12,30.37-19.44,9.39-7.39,19.55-15.81,25.06-26.66,11-21.7-6.54-39.82-22.06-53.09Z"/>
            <path class="cls-10" d="M121.32,898.92c-19.52-11.63-40.31-21.45-61.9-28.58-2.15-.71-3.02,2.61-.93,3.37,18.49,6.73,36.49,14.45,53.7,24.02,8.12,4.51,16.06,9.35,23.76,14.54,8.1,5.47,17.36,12.48,17.59,23.24.4,18.54-22.26,33.11-36.38,40.97-16.84,9.38-35.62,14.68-54.84,15.8-.83.05-.85,1.34,0,1.31,20.32-.83,40.16-6.31,57.9-16.31,14.38-8.1,34.61-21.53,36.15-39.75,1.62-19.13-21.37-30.46-35.04-38.61Z"/>
            <path class="cls-10" d="M113.68,941.57c-4.18-10.65-17.08-15.26-26.64-19.54-13.82-6.19-28.1-11.46-42.7-15.49-2.3-.64-3.27,2.9-.99,3.57,11.21,3.3,22.27,6.91,33.11,11.27,9.61,3.86,22.52,7.88,30.04,15.44,5.07,5.1,7.24,12.34,2.4,18.36-3.42,4.25-9.14,7.04-13.87,9.66-10.39,5.75-21.46,9.87-32.96,12.78-1.09.28-.63,1.9.46,1.67,13.73-2.92,26.93-7.96,39.03-15.08,8.59-5.05,16.38-11.79,12.12-22.63Z"/>
          </g>
          <g>
            <path class="cls-5" d="M265.14,764.25c-2.84-.39-5.7-.61-8.56-.72,6.7-2.03,12.68-6.05,17.1-11.77,5.2-6.72,9.01-17.46,4.72-25.56-2.11-4-5.72-5.24-9.76-6.67-5.15-1.83-7.65-4.71-9.95-9.59-1.06-2.25-2.1-4.37-3.87-6.16-7.72-7.8-19.02-5.6-27.82-1.17-.23-7.82-2.3-15.93-9.47-18.32-5.78-1.92-11.03,1.93-16.4,3.41-8.1,2.24-11.61-5.92-19.19-4.52-14.99,2.77-10.15,22.83-9.21,33.33-1.09-1.27-2.25-2.48-3.51-3.62-8.24-7.49-22.13-13.33-32.91-7.68-10.67,5.59-2.97,17.69-3.14,26.45-.12,6.14-6.01,8.8-4.84,15.19,1.06,5.8,5.08,10.36,9.92,13.4.04.03.08.04.12.05-4.93.51-9.77,1.94-14.38,4.56-6.08,3.45-11.95,9.38-12.43,16.73-.53,8.14,6.4,13.6,10.23,19.95,5.05,8.36-.61,18.55,5.6,26.17,5.03,6.18,13.62,7.06,20.87,5.01.82-.23,1.6-.51,2.38-.8-2.32,3.46-4.33,7.5-2.74,11.69,1.82,4.8,7.64,5.55,10.92,9.17,7.2,7.93,9.9,18.7,22.94,17.02,7.72-1,12.7-4.46,15.81-9.33,2.4,3.27,5.78,5.31,10.02,4.75,2.84-.38,5.13-2.17,7.81-2.97,5.4-1.61,9.83,1.09,14.59,3.19,9.25,4.09,19.24,1.76,24.37-7.51,5.7-10.28,3.2-20.64-3.09-29.94,9.65,3.05,22.15,1.94,26.22-8.98,1.13-3.03.7-5.68.7-8.81,0-4.68,1.49-8.14,3.94-12.02,2.82-4.45,6.46-8.78,6.91-14.25,1.06-13.08-13.53-18.26-23.9-19.69ZM227.04,703.8c.08,0,.16-.02.24-.06,11.19-5.38,24.13-5.46,30.09,6.99,3.61,7.54,6.34,7.93,13.65,11.26,11.91,5.42,7.87,20.48,1.55,28.81-4.9,6.46-11.86,10.82-19.6,12.68-13.02.05-26.14,2.71-38.54,6.21-.81-1.71-2.2-2.99-4.16-3.19,1.11-1.24,1.25-3.23.25-4.58-.27-.36-.6-.63-.97-.85,6.52-4.37,11.93-10.38,16.07-17.02.07.2.19.38.41.44,1.85.51,3.73-1.39,3.95-3.11.24-1.85-1.22-3.36-3-3.59-1.69-.21-3.25.89-3.38,2.63-.1,1.31.64,2.71,1.86,3.16-4.52,6.77-10.03,12.22-16.47,17.18-.58-.23-1.21-.31-1.84-.23.74-1.05.9-2.56.31-3.68-.65-1.24-2.13-1.96-3.51-1.81.01-.09.02-.19.03-.28.04-.02.08-.04.12-.07,11.9-10.54,19.9-24.79,22.16-40.59.4-2.81.78-6.48.75-10.29ZM226.9,739.29c.91.15,1.71.86,1.63,1.84-.09,1.14-.93,1.62-1.86,1.9-.05-.14-.16-.27-.32-.33-1.82-.67-1.7-3.76.55-3.4ZM172.45,698.75c.36-4.94,2.03-10.32,6.7-12.88,4.41-2.42,7.2-.83,10.94,1.34,3.18,1.84,4.97,3.13,8.84,2.63,4.93-.64,9.11-4.05,14.11-4.37,16.6-1.07,12.69,26.41,10.16,35.84-3.27,12.21-9.88,23.01-19.09,31.58-.09-2.29-.98-4.52-3.38-5.02.02-.02.04-.03.06-.06,6.36-9.15,9.88-19.79,10.93-30.83.05.01.1.03.17.03,1.81-.07,3.27-1.65,3.29-3.47.02-1.81-1.57-3.1-3.3-3.13-1.73-.03-3.23,1.23-3.29,3-.05,1.67,1.1,3.05,2.72,3.28.05.09.12.16.22.22-1.88,10.99-5.88,20.85-11.58,30.41-.11.18-.08.34,0,.47-1.91-.02-3.59,1.31-4.74,2.99.34-10.57-.96-23.05-6.96-31.89.08-.08.16-.15.23-.24.19-.01.39-.1.54-.32.97-1.38.31-3.44-.96-4.39-1.43-1.06-3.35-.56-4.34.85-.98,1.39-.83,3.33.61,4.34,1.12.78,2.62.75,3.67-.04,5.94,9.57,6.29,22.38,6.27,33.3,0,.02.01.02.02.04-.26.59-.44,1.18-.55,1.73-.13.67.79.93,1.02.28.76-2.18,2.82-5.87,5.66-5.15,2.92.74,2.28,4.15,2.07,6.47,0,.02,0,.05,0,.08,0,.1-.02.2-.03.3-.05.73,1.04.83,1.24.17.02-.06.03-.12.05-.18,1.05-.16,2.16.15,2.69,1.19.67,1.33-.16,2.48-1.13,3.31-.43.37.03,1.16.56.96.07-.03.13-.07.2-.11.08.06.17.08.28.05,1.21-.4,2.66-.12,3.37,1.03.68,1.12.28,2.45-.57,3.33-.3.3-.2.67.04.89-.01.18.09.37.33.4,4.73.55,5.43,7.45,2.88,10.57-.01.02-.02.03-.03.05,0,0,0,0,0,0-.43-.03-.51.64-.1.74,0,0,0,0,0,0,.14.35.5.59.88.47.34.29.58.68.6,1.16.04.83-.54,1.37-1.23,1.71-.31.15-.35.48-.22.74-.22-.03-.45-.05-.66-.05-.26,0-.33.41-.06.46,1.24.24,2.73.99,2.93,2.38.16,1.1-1.08,2.39-2.16,1.72-.73-.46-1.33.52-.84,1.09-.03,0-.05,0-.08,0-.44.03-.44.66,0,.68,1.53.1,1.88,2.07,1.26,3.2-.57,1.04-1.64,1.67-2.64,2.26-.21-.19-.44-.36-.7-.48-.74-.36-1.39.77-.65,1.1.21.09.39.22.56.37.06.23.23.44.46.51.23.35.36.77.37,1.19-.14.19-.18.43-.08.63-.01.04-.01.09-.03.13-.37,1.04-1.55,1.5-2.59,1.34-.22-.3-.55-.32-.81-.19-.28,0-.46.27-.34.51,0,.11,0,.22.08.34.5.91.43,2.12-.21,2.9-.31-.1-.63.18-.66.52-.06.03-.11.07-.18.1-1.42.59-3.05-.48-3.41-1.89-.08-.3-.55-.27-.59.01-.44-.27-1.14-.09-1.12.57.07,2.84-2.56,5.66-5.56,4.88-2.53-.66-3.86-3.54-3.43-5.98.04-.1.11-.17.14-.27.18-.57-.54-.89-.94-.55-.62.53-1.03,1.03-1.87,1.22-.5.11-1.03.09-1.52-.06-.11-.12-.28-.19-.43-.16-.15-.08-.31-.16-.44-.27-1.39-1.15-1.05-3.53.3-4.56.39-.3.07-.92-.38-.69-.09-.21-.32-.38-.56-.3-.51.17-1.02.08-1.39-.23.21-.44-.1-.84-.47-.93-.05-.7.32-1.4.75-2.01.4-.09.8-.24,1.17-.43.67-.34.17-1.24-.48-1.13-2.51.43-5.2-.02-6.6-2.43-1.41-2.42-.44-5.56,1.69-7.19.3-.23.26-.61.06-.82.13-.06.26-.11.38-.19.5-.35.21-1.34-.45-1.08-1.14.46-2.51.33-3.18-.85-.82-1.43.57-3.15,2.02-3.33.27-.03.36-.26.31-.45.29-.22.39-.68-.01-.88-.8-.39-1.33-.99-1.14-1.95.16-.87.93-1.55,1.66-2.07.21.16.44.32.69.46.67.36,1.34-.49.81-1.05-1.41-1.5-2.41-3.25-1.67-5.35.7-2.02,2.47-2.71,4.35-3.16.27.11.56.15.85.04.31-.12.55-.49.33-.82-.31-.46-.87-.6-1.18-1.08-.31-.47-.43-1.09-.22-1.62.47-1.19,2.15-1.26,3.07-.59.11.08.23.05.34,0,.59.16,1.33-.31,1.07-1.02-.44-1.19-.25-2.67,1.02-3.3,1.66-.82,3.38.86,3.43,2.47.02.59.96.78,1.08.15.47-2.59-2.03-5.16-4.67-4.41-.68.19-1.27.6-1.74,1.13-2.46-11.88-6.12-24.38-13.94-33.87.15-6.19-1.37-12.34-.92-18.52ZM211.45,715.8c-1.83-.71-1.98-3.86.32-3.89.92-.01,1.86.52,1.93,1.52.07,1.03-.78,2.09-1.81,2.17-.18.02-.32.1-.43.2ZM187.8,717.61c-.06.14-.07.27-.06.39-1.46,1.08-4.03-.45-2.83-2.26,1.32-1.99,3.76-.05,2.89,1.87ZM130.02,748.57c-.75-3.45.98-6.88,2.41-10.08,1.23-2.75,2.12-4.45,2.02-7.61-.31-9.37-8.14-22.03,5.91-25.71,12.94-3.4,26.31,5.04,33.62,15.17,6.75,9.35,9.79,20.68,12.2,31.79.04.2.15.33.28.4-.27.73-.36,1.52-.19,2.27-1.27-.6-2.95-.2-3.72,1.12-.29.5-.37,1.09-.32,1.66-6.34-7.1-14.01-12.9-22.57-17.07.46-1.68-.72-3.46-2.42-3.8-1.69-.34-3.16.96-3.43,2.58-.26,1.55.66,3.06,2.24,3.36,1.33.25,3.04-.45,3.48-1.82,8.81,4.8,16.43,10.86,23.11,18.35-4.22.24-6.34,6.48-3.44,9.59-1.05.53-1.98,1.33-2.23,2.51-11.29-6.97-25.12-12.31-38.4-11,.22-.11.32-.47.05-.66-3.73-2.58-7.59-6.43-8.6-11.06ZM158.52,740.32c-.44.73-1.12,1.2-2.02,1.07-.87-.12-1.33-.86-1.21-1.7.11-.79.68-1.59,1.56-1.51,1.05.09,1.78,1.15,1.68,2.15ZM126.89,823.63c-2.45-6.28.63-13.2-2.09-19.56-2.25-5.27-6.84-9.02-9.61-13.95-5.73-10.2,1.18-19.92,10.38-24.74,17.05-8.93,35.75-1.79,51.33,6.63.05.78.41,1.62,1.04,2.05-1.69.44-2.89,2.33-2.3,4.08.26.79.89,1.43,1.64,1.83-10.45-2.88-21.17-4.46-31.99-5.05.12-1.59-1.36-3.11-2.89-3.31-1.78-.23-3.17,1.23-3.33,2.93-.15,1.63.92,3.18,2.61,3.32,1.39.11,2.9-.71,3.28-2.07.1-.08.18-.18.23-.32.02-.06.02-.12.03-.18,11.15.9,21.92,3.02,32.68,6.08.08.02.16.02.23.02-1.71,1.95-2.3,4.79-1.08,7.23.28.56.65,1.07,1.09,1.53-6.12,4.32-12.19,8.7-18.25,13.1-.05-.06-.07-.12-.12-.17-.21-.2-.53-.2-.77-.06-.51-1.23-2.21-1.85-3.51-1.37-1.77.65-2.29,2.83-1.72,4.47.64,1.82,2.59,2.79,4.37,1.91,1.41-.7,2.88-3.06,1.88-4.58,6.25-4.22,12.48-8.48,18.68-12.78,1.25,1.03,2.87,1.64,4.46,1.61-.53.81-.85,1.72-.54,2.64-6.79,12.35-14.29,25.91-26.95,33.06-8.66,4.89-24.21,7.43-28.79-4.31ZM143.89,775.35c-.42.61-1.05,1.02-1.84.98-.86-.05-1.43-.65-1.4-1.52.03-.8.56-1.68,1.44-1.69,1.19,0,1.8,1.12,1.79,2.16,0,.03.01.05.01.07ZM158.81,805.06c-.14.57-.52,1.09-.99,1.43-.9.64-2.01.41-2.52-.58-.4-.78-.4-1.89.21-2.56.73-.81,2.5-.55,2.61.67.03.37.44.56.73.46.02.19.02.38-.03.58ZM186.72,866.85c-5.58,2.33-11.6,2.27-16.54-1.5-3.81-2.9-5.78-7.37-8.48-11.2-1.54-2.19-3.22-4.13-5.46-5.62-3.01-2-3.87-1.61-5.84-5.14-2.55-4.58-.59-7.92,1.76-12.06,14.89-6.17,23.97-21.65,31.35-35.29.41.31.9.52,1.38.51-1.12,1.48-1.12,3.74.29,5.1.24.23.54.41.86.56-2.13,9.86-8.94,17.3-15.46,24.67-.17-.12-.39-.12-.58-.04-.86-1.24-2.58-1.59-3.95-.99-1.73.76-2.26,2.77-1.37,4.39.88,1.59,2.86,2.38,4.51,1.44,1.52-.86,2.42-2.98,1.59-4.59,0,0,0,0,0,0,7.12-7,13.66-14.72,16.06-24.59,1.17.29,2.53.15,3.47-.52-.32,2.39.95,4.88,3.17,5.92-1.9,11.43-5.52,22.11-10.76,32.44-.11.02-.21.06-.29.12-1.59-.25-3.23.91-3.59,2.5-.4,1.78.96,3.33,2.66,3.65,1.66.32,3.3-.61,3.66-2.3.31-1.48-.43-3.3-1.9-3.86,5.77-10,9.49-20.78,11.32-32.18.79.18,1.57.16,2.31-.02-.09.09-.14.22-.12.38,2.07,17.84,12.83,48.7-10.01,58.22ZM168.6,830.45c-1,.58-2.1-.01-2.59-.98-1.05-2.11,1.99-3.24,3.22-1.66.12.16.28.2.43.19.11.96-.15,1.91-1.06,2.45ZM183.64,843.83c-.11.87-.83,1.38-1.68,1.3-.8-.08-1.66-.65-1.69-1.52-.04-1.02.92-1.93,1.91-2.03.06.06.12.12.21.16.82.41,1.36,1.12,1.24,2.09ZM255,850.77c-1.21,7.15-5.97,13.68-13.4,15.24-6.18,1.3-11.04-2.33-16.52-4.4-2.66-1.01-5.21-1.67-8.06-1.21-7.03,1.12-12.67,7.16-18.86-.76,0-.01-.02-.01-.03-.02,7.91-13.77,2.11-37.74-.23-51.13-.04-.23-.22-.36-.42-.4,2.25-.81,3.99-3.04,4.11-5.47.73,1.44,2.41,2.33,4.04,1.78.14-.05.26-.12.39-.18,7.95,9.96,13.8,20.78,18.14,32.72-1.21.47-2.14,1.92-2.05,3.2.16,2.09,2.44,3.15,4.31,2.63,2.1-.58,2.84-2.91,1.91-4.78-.44-.89-1.24-1.6-2.21-1.85-.56-.14-1.24.11-1.66.55-3.52-12.18-9.57-23.31-17.59-33.12.87-.91,1.24-2.29.9-3.51,1.22.09,2.48-.48,3.11-1.6.03-.06.04-.13.07-.19,18.7,9.05,48.14,28.32,44.03,52.5ZM224.43,838.31c.24.17.56.2.82-.04.09-.09.36-.54.44-.55.15-.03.43.2.55.29.38.3.66.76.77,1.23.25,1.02-.35,1.88-1.4,1.98-.91.09-1.9-.41-1.91-1.41,0-.63.29-1.13.73-1.5ZM287.16,784.69c-1.14,8.28-9.3,13.63-10.51,21.97-.9,6.15,1.22,11.19-3.6,16.42-5.83,6.34-14.97,6.1-22.6,3.74-9.82-13.67-27.63-24.9-39.2-29.9-.02-.51-.15-1.02-.39-1.48,1.61-.93,3.31-2.32,3.29-4.28,0-.76-.3-1.5-.77-2.05,8.73,1.1,17.1,3.11,25.48,5.74.09.96.54,1.89,1.28,2.53,1.56,1.33,3.79.8,4.92-.81,1.11-1.58.84-3.79-.94-4.72-1.26-.66-3.04-.53-4.07.48-.21-.05-.46.02-.63.25-.39.53-.57,1.16-.59,1.79-7.85-3.15-16.09-5.09-24.48-6.07.77-.49,1.34-1.31,1.38-2.23.08-1.6-1.12-2.73-2.53-3.22,1.08-.46,1.77-1.65,1.61-2.83-.1-.7-.48-1.27-1-1.67.57-.74.97-1.65,1.2-2.63,13.21.02,26.2,1.07,39.3,2.64-.19.45-.28.93-.21,1.43.07.53.76.51,1.03.15.19.93.85,1.8,1.73,2.21,1.81.84,3.56-.53,3.78-2.37.23-1.82-.95-3.65-2.9-3.68-1.28-.02-2.64.82-3.28,1.98-12.92-2.52-26.13-3.49-39.28-3.39.14-1.26.04-2.58-.31-3.78,12.14-2.71,24.27-5.51,36.77-5.73,12-.21,37.96,1.67,35.5,19.51ZM240.21,793.98c.17-.02.35-.11.49-.29,1.45-1.92,4.75-.03,3.07,2.12-1.53,1.96-3.77.08-3.56-1.83ZM256.34,777.95c.29-.22.65-.37,1.1-.41,1.07-.1,1.77.74,1.79,1.75.02.89-.6,1.93-1.62,1.64-1-.28-1.71-1.47-1.21-2.43.1-.19.05-.4-.07-.55Z"/>
            <path class="cls-5" d="M257.46,745.04c-.47-1.84-2.3-3.23-4.21-2.58-1.55.53-2.57,2.15-2.37,3.72-.21.16-.34.42-.26.73,0,0,0,.01,0,.02-12.82,7.06-25.72,13.41-39.37,18.8-.54.21-.32,1.1.25.89,13.65-5.04,27.01-11.42,39.28-19.29.69,1.55,2.7,2.3,4.3,1.93,1.91-.44,2.84-2.38,2.38-4.21ZM254.45,747.84c-1.05.12-1.83-.41-2.35-1.22-.22-1.18.57-2.5,1.78-2.76,1.14-.24,1.99.77,2.15,1.8.17,1.09-.46,2.05-1.59,2.18Z"/>
          </g>
          <path class="cls-5" d="M376.33,1025.38c.63-.47.56-1.38-.22-1.66-8.49-2.96-12.79-10.68-22.6-9.56-5.53.63-10.27,3.1-14.04,6.86,4.48-9.55.67-20.74-7.16-27.99-.38-.35-1.16-.37-1.4.18-2.34,5.28-6.66,10.06-7.34,15.96-.45,3.93.92,7.61,2.96,10.91-6.91-5.72-19.75-2.09-27.82-1.54-.8.05-1.29,1.01-.67,1.62,2.85,2.83,2.24,7.36,4.36,10.63,1.41,2.18,3.53,3.83,5.84,4.95,4.16,2.02,8.55,1.89,12.71.62-2.66,2-5.05,4.52-6.88,6.94-3.7,4.88-3.75,10.43-3.41,16.31.03.58.54,1.01,1.13.86,9.35-2.49,18.79-6.54,21.62-15.42.36,4.59,1.06,9.34,3.45,12.69,3.44,4.81,9.98,5.95,14.41,9.58.52.42,1.21.27,1.44-.38,3.83-10.94,2.13-23.68-7.66-29.95,11.48,2.5,22.04-4.65,31.28-11.62ZM330.96,1024.67c-3.2-5.33-6.93-10.35-5.31-17.01.23-.97,4.48-11.54,6.07-11.89,3.32-.74,6.89,8.38,7.58,10.91,1.68,6.21.34,12.19-2.86,17.62-.53-1.12-1.79-1.95-3.08-1.67-1.02.22-1.79,1-2.19,1.93-.2.47-.34,1.1-.33,1.7-.15-.12-.32-.21-.51-.29,0-.02,0-.04,0-.07-.15-.47-.32-.91-.5-1.33.17.2.33.4.5.59.31.36.89-.1.65-.5ZM304.04,1029.85c-1.99-3-1.72-6.68-3.53-9.6,9.7-1.28,23.74-5.78,28.49,5.58-.7.08-1.39.38-1.84.91-.73.84-.82,2.07-.45,3.09.21.58.6,1.22,1.11,1.66-.51.39-.82.98-.96,1.61-.09-.06-.2-.09-.32-.04-7.22,2.82-17.44,4.42-22.49-3.21ZM312.37,1058.47c-.29-5.7.1-10.69,4.07-15.36,2.94-3.47,6.35-6.6,10.42-8.65.12.46.35.89.73,1.22,1,.88,2.99.71,3.97-.28.04.88.54,1.76,1.3,2.19.13,1.24.22,2.59.31,3.99-2.15,10.07-11.19,14.23-20.79,16.9ZM333.36,1036.76c-.93-.31-1.44-1.55-1.02-2.44.1-.21-.07-.37-.24-.36-.07-.39-.6-.51-.82-.16-.34.55-.59,1.01-1.24,1.26-.56.21-1.24.19-1.72-.19-.96-.75-.71-2.23.11-2.98.23.1.48.17.74.16.42,0,.62-.51.34-.82-.49-.53-1.12-.84-1.46-1.51-.34-.66-.42-1.52.07-2.13.67-.84,2.55-.94,3.14.07.04.06.09.08.14.09.28.21.76.03.74-.35-.03-.63-.27-1.17-.14-1.82.13-.67.5-1.32,1.1-1.69,1.05-.64,2.44.17,2.76,1.25-.33.11-.64.24-.92.39-.43.23-.12.85.32.75.18-.04.36-.08.55-.13,0,.03,0,.05-.02.08-.19.41.38.76.62.36.12-.2.19-.41.24-.62,1.18-.24,2.39-.33,3.41.48.64.51,1.2,1.34.93,2.21-.27.9-1.27,1.41-2.13,1.08-.18-.07-.33.06-.38.21-.1,0-.19,0-.29,0-.48.04-.66.78-.12.9,1.41.31,2.72,1.75,2.15,3.25-.28.14-.46.43-.45.72-.85.82-2.38.8-3.33.11-.04-.38-.17-.74-.48-1.05-.35-.35-.92.01-.81.47.13.53.27.92.05,1.46-.21.49-.64.92-1.18,1.01-.18-.11-.42-.12-.64-.06ZM351.42,1065.32c-3.34-2.34-7.28-3.54-10.53-5.99-6.14-4.62-5.63-14.39-6.54-21.53.93-.24,1.77-1.15,2.02-2.12,1.21.87,3.01.86,4.13-.17.08.03.15.06.23.09.03.06.08.12.16.16,11.54,5.56,14.08,18.21,10.54,29.55ZM341.27,1034.25c.38-1.31-.19-2.91-1.27-3.74,1.36-.29,2.32-1.85,1.83-3.33-.65-1.94-2.61-2.54-4.49-2.35,4.4-4.98,10.41-8.75,17.21-9.06,7.06-.33,10.88,4.15,16.35,7.56,2.73,1.7,4.01.75.64,3.46-2.2,1.77-4.65,3.33-7.11,4.73-7.2,4.1-15.3,6-23.16,2.72Z"/>
          <path class="cls-5" d="M2484.88,877.52c.63-.48.57-1.39-.22-1.67-8.54-2.98-12.87-10.75-22.75-9.63-5.57.63-10.33,3.12-14.13,6.91,4.51-9.62.68-20.88-7.21-28.18-.38-.35-1.16-.37-1.41.18-2.36,5.31-6.7,10.12-7.38,16.07-.46,3.96.92,7.66,2.98,10.99-6.96-5.76-19.88-2.11-28.01-1.55-.8.06-1.3,1.02-.68,1.63,2.87,2.84,2.26,7.41,4.39,10.71,1.42,2.19,3.55,3.85,5.88,4.98,4.19,2.03,8.6,1.9,12.79.63-2.68,2.01-5.08,4.55-6.93,6.98-3.73,4.91-3.78,10.5-3.43,16.42.03.58.55,1.02,1.13.86,9.41-2.51,18.91-6.58,21.76-15.52.36,4.63,1.07,9.4,3.48,12.77,3.46,4.84,10.05,5.99,14.51,9.65.52.42,1.22.27,1.45-.38,3.86-11.01,2.15-23.84-7.71-30.15,11.56,2.51,22.19-4.68,31.49-11.7ZM2439.21,876.8c-3.22-5.37-6.97-10.42-5.35-17.12.24-.97,4.51-11.61,6.11-11.97,3.34-.75,6.94,8.44,7.63,10.99,1.69,6.25.34,12.27-2.88,17.74-.54-1.13-1.8-1.96-3.1-1.68-1.03.22-1.8,1-2.2,1.95-.2.48-.35,1.1-.33,1.71-.15-.12-.32-.21-.51-.29,0-.02,0-.04,0-.07-.15-.47-.32-.92-.5-1.34.17.2.33.4.5.6.31.36.89-.1.65-.5ZM2412.1,882.02c-2-3.02-1.73-6.72-3.55-9.67,9.76-1.29,23.89-5.82,28.68,5.61-.71.08-1.4.39-1.86.92-.73.85-.83,2.08-.46,3.11.21.58.6,1.22,1.12,1.67-.51.4-.83.99-.97,1.62-.09-.06-.2-.09-.32-.04-7.27,2.84-17.55,4.45-22.64-3.23ZM2420.5,910.82c-.29-5.74.11-10.76,4.1-15.47,2.96-3.49,6.39-6.64,10.49-8.71.12.46.35.89.73,1.23,1.01.89,3.01.71,3.99-.28.04.89.55,1.77,1.31,2.21.13,1.25.22,2.6.31,4.01-2.17,10.13-11.27,14.32-20.93,17.01ZM2441.62,888.97c-.93-.31-1.45-1.56-1.03-2.46.1-.21-.07-.38-.24-.37-.07-.39-.6-.52-.82-.16-.34.55-.6,1.02-1.25,1.26-.56.21-1.25.19-1.73-.19-.96-.76-.71-2.24.11-3,.23.1.48.17.75.16.42,0,.63-.52.34-.82-.5-.53-1.13-.85-1.47-1.52-.34-.67-.42-1.53.07-2.15.68-.85,2.56-.94,3.17.07.04.06.09.08.15.09.28.22.76.03.74-.36-.03-.63-.27-1.18-.14-1.83.13-.68.5-1.33,1.1-1.7,1.06-.65,2.46.17,2.77,1.26-.33.11-.64.24-.93.39-.43.23-.13.86.32.76.18-.04.37-.08.55-.13,0,.03,0,.05-.02.08-.19.41.38.77.62.36.12-.2.19-.41.24-.63,1.19-.24,2.4-.34,3.43.48.65.52,1.21,1.35.94,2.22-.28.9-1.28,1.42-2.15,1.09-.18-.07-.33.06-.39.21-.1,0-.19,0-.29,0-.48.04-.67.79-.12.91,1.42.31,2.74,1.77,2.16,3.27-.28.14-.46.44-.46.72-.85.82-2.4.8-3.36.11-.04-.38-.18-.75-.48-1.06-.35-.36-.92.01-.81.47.13.54.28.93.05,1.47-.21.5-.64.93-1.19,1.01-.18-.11-.42-.12-.64-.06ZM2459.8,917.72c-3.36-2.36-7.33-3.56-10.61-6.03-6.18-4.65-5.67-14.49-6.58-21.67.93-.24,1.78-1.16,2.03-2.13,1.22.87,3.03.86,4.15-.17.08.03.15.06.23.1.03.07.08.12.16.16,11.62,5.6,14.18,18.33,10.61,29.75ZM2449.58,886.44c.38-1.32-.19-2.93-1.28-3.76,1.37-.29,2.34-1.86,1.84-3.35-.66-1.96-2.63-2.55-4.52-2.36,4.43-5.01,10.48-8.8,17.33-9.12,7.11-.33,10.95,4.18,16.46,7.61,2.74,1.71,4.04.76.64,3.48-2.22,1.78-4.69,3.35-7.16,4.76-7.25,4.13-15.4,6.04-23.31,2.74Z"/>
          <path class="cls-5" d="M2078.89,506.02c.63-.48.57-1.39-.22-1.67-8.54-2.98-12.87-10.75-22.75-9.63-5.57.63-10.33,3.12-14.13,6.91,4.51-9.62.68-20.88-7.21-28.18-.38-.35-1.16-.37-1.41.18-2.36,5.31-6.7,10.12-7.38,16.07-.46,3.96.92,7.66,2.98,10.99-6.96-5.76-19.88-2.11-28.01-1.55-.8.06-1.3,1.02-.68,1.63,2.87,2.84,2.26,7.41,4.39,10.71,1.42,2.19,3.55,3.85,5.88,4.98,4.19,2.03,8.6,1.9,12.79.63-2.68,2.01-5.08,4.55-6.93,6.98-3.73,4.91-3.78,10.5-3.43,16.42.03.58.55,1.02,1.13.86,9.41-2.51,18.91-6.58,21.76-15.52.36,4.63,1.07,9.4,3.48,12.77,3.46,4.84,10.05,5.99,14.51,9.65.52.42,1.22.27,1.45-.38,3.86-11.01,2.15-23.84-7.71-30.15,11.56,2.51,22.19-4.68,31.49-11.7ZM2033.22,505.3c-3.22-5.37-6.97-10.42-5.35-17.12.24-.97,4.51-11.61,6.11-11.97,3.34-.75,6.94,8.44,7.63,10.99,1.69,6.25.34,12.27-2.88,17.74-.54-1.13-1.8-1.96-3.1-1.68-1.03.22-1.8,1-2.2,1.95-.2.48-.35,1.1-.33,1.71-.15-.12-.32-.21-.51-.29,0-.02,0-.04,0-.07-.15-.47-.32-.92-.5-1.34.17.2.33.4.5.6.31.36.89-.1.65-.5ZM2006.11,510.52c-2-3.02-1.73-6.72-3.55-9.67,9.76-1.29,23.89-5.82,28.68,5.61-.71.08-1.4.39-1.86.92-.73.85-.83,2.08-.46,3.11.21.58.6,1.22,1.12,1.67-.51.4-.83.99-.97,1.62-.09-.06-.2-.09-.32-.04-7.27,2.84-17.55,4.45-22.64-3.23ZM2014.5,539.33c-.29-5.74.11-10.76,4.1-15.47,2.96-3.49,6.39-6.64,10.49-8.71.12.46.35.89.73,1.23,1.01.89,3.01.71,3.99-.28.04.89.55,1.77,1.31,2.21.13,1.25.22,2.6.31,4.01-2.17,10.13-11.27,14.32-20.93,17.01ZM2035.63,517.48c-.93-.31-1.45-1.56-1.03-2.46.1-.21-.07-.38-.24-.37-.07-.39-.6-.52-.82-.16-.34.55-.6,1.02-1.25,1.26-.56.21-1.25.19-1.73-.19-.96-.76-.71-2.24.11-3,.23.1.48.17.75.16.42,0,.63-.52.34-.82-.5-.53-1.13-.85-1.47-1.52-.34-.67-.42-1.53.07-2.15.68-.85,2.56-.94,3.17.07.04.06.09.08.15.09.28.22.76.03.74-.36-.03-.63-.27-1.18-.14-1.83.13-.68.5-1.33,1.1-1.7,1.06-.65,2.46.17,2.77,1.26-.33.11-.64.24-.93.39-.43.23-.13.86.32.76.18-.04.37-.08.55-.13,0,.03,0,.05-.02.08-.19.41.38.77.62.36.12-.2.19-.41.24-.63,1.19-.24,2.4-.34,3.43.48.65.52,1.21,1.35.94,2.22-.28.9-1.28,1.41-2.15,1.09-.18-.07-.33.06-.39.21-.1,0-.19,0-.29,0-.48.04-.67.79-.12.91,1.42.31,2.74,1.77,2.16,3.27-.28.14-.46.44-.46.72-.85.82-2.4.8-3.36.11-.04-.38-.18-.75-.48-1.06-.35-.36-.92.01-.81.47.13.54.28.93.05,1.47-.21.5-.64.93-1.19,1.01-.18-.11-.42-.12-.64-.06ZM2053.81,546.22c-3.36-2.36-7.33-3.56-10.61-6.03-6.18-4.65-5.67-14.49-6.58-21.67.93-.24,1.78-1.16,2.03-2.13,1.22.87,3.03.86,4.15-.17.08.03.15.06.23.1.03.07.08.12.16.16,11.62,5.6,14.18,18.33,10.61,29.75ZM2043.59,514.94c.38-1.32-.19-2.93-1.28-3.76,1.37-.29,2.34-1.86,1.84-3.35-.66-1.96-2.63-2.55-4.52-2.36,4.43-5.01,10.48-8.8,17.33-9.12,7.11-.33,10.95,4.18,16.46,7.61,2.74,1.71,4.04.76.64,3.48-2.22,1.78-4.69,3.35-7.16,4.76-7.25,4.13-15.4,6.04-23.31,2.74Z"/>
          <path class="cls-5" d="M379.04,1101.08c.63-.47.56-1.38-.22-1.66-8.49-2.96-12.79-10.68-22.6-9.56-5.53.63-10.27,3.1-14.04,6.86,4.48-9.55.67-20.74-7.16-27.99-.38-.35-1.16-.37-1.4.18-2.34,5.28-6.66,10.06-7.34,15.96-.45,3.93.92,7.61,2.96,10.91-6.91-5.72-19.75-2.09-27.82-1.54-.8.05-1.29,1.01-.67,1.62,2.85,2.83,2.24,7.36,4.36,10.63,1.41,2.18,3.53,3.83,5.84,4.95,4.16,2.02,8.55,1.89,12.71.62-2.66,2-5.05,4.52-6.88,6.94-3.7,4.88-3.75,10.43-3.41,16.31.03.58.54,1.01,1.13.86,9.35-2.49,18.79-6.54,21.62-15.42.36,4.59,1.06,9.34,3.45,12.69,3.44,4.81,9.98,5.95,14.41,9.58.52.42,1.21.27,1.44-.38,3.83-10.94,2.13-23.68-7.66-29.95,11.48,2.5,22.04-4.65,31.28-11.62ZM333.67,1100.37c-3.2-5.33-6.93-10.35-5.31-17.01.23-.97,4.48-11.54,6.07-11.89,3.32-.74,6.89,8.38,7.58,10.91,1.68,6.21.34,12.19-2.86,17.62-.53-1.12-1.79-1.95-3.08-1.67-1.02.22-1.79,1-2.19,1.93-.2.47-.34,1.1-.33,1.7-.15-.12-.32-.21-.51-.29,0-.02,0-.04,0-.07-.15-.47-.32-.91-.5-1.33.17.2.33.4.5.59.31.36.89-.1.65-.5ZM306.74,1105.55c-1.99-3-1.72-6.68-3.53-9.6,9.7-1.28,23.74-5.78,28.49,5.58-.7.08-1.39.38-1.84.91-.73.84-.82,2.07-.45,3.09.21.58.6,1.22,1.11,1.66-.51.39-.82.98-.96,1.61-.09-.06-.2-.09-.32-.04-7.22,2.82-17.44,4.42-22.49-3.21ZM315.08,1134.17c-.29-5.7.1-10.69,4.07-15.36,2.94-3.47,6.35-6.6,10.42-8.65.12.46.35.89.73,1.22,1,.88,2.99.71,3.97-.28.04.88.54,1.76,1.3,2.19.13,1.24.22,2.59.31,3.99-2.15,10.07-11.19,14.23-20.79,16.9ZM336.07,1112.46c-.93-.31-1.44-1.55-1.02-2.44.1-.21-.07-.37-.24-.36-.07-.39-.6-.51-.82-.16-.34.55-.59,1.01-1.24,1.26-.56.21-1.24.19-1.72-.19-.96-.75-.71-2.23.11-2.98.23.1.48.17.74.16.42,0,.62-.51.34-.82-.49-.53-1.12-.84-1.46-1.51-.34-.66-.42-1.52.07-2.13.67-.84,2.55-.94,3.14.07.04.06.09.08.14.09.28.21.76.03.74-.35-.03-.63-.27-1.17-.14-1.82.13-.67.5-1.32,1.1-1.69,1.05-.64,2.44.17,2.76,1.25-.33.11-.64.24-.92.39-.43.23-.12.85.32.75.18-.04.36-.08.55-.13,0,.03,0,.05-.02.08-.19.41.38.76.62.36.12-.2.19-.41.24-.62,1.18-.24,2.39-.33,3.41.48.64.51,1.2,1.34.93,2.21-.27.9-1.27,1.41-2.13,1.08-.18-.07-.33.06-.38.21-.1,0-.19,0-.29,0-.48.04-.66.78-.12.9,1.41.31,2.72,1.75,2.15,3.25-.28.14-.46.43-.45.72-.85.82-2.38.8-3.33.11-.04-.38-.17-.74-.48-1.05-.35-.35-.92.01-.81.47.13.53.27.92.05,1.46-.21.49-.64.92-1.18,1.01-.18-.11-.42-.12-.64-.06ZM354.12,1141.02c-3.34-2.34-7.28-3.54-10.53-5.99-6.14-4.62-5.63-14.39-6.54-21.53.93-.24,1.77-1.15,2.02-2.12,1.21.87,3.01.86,4.13-.17.08.03.15.06.23.09.03.06.08.12.16.16,11.54,5.56,14.08,18.21,10.54,29.55ZM343.97,1109.94c.38-1.31-.19-2.91-1.27-3.74,1.36-.29,2.32-1.85,1.83-3.33-.65-1.94-2.61-2.54-4.49-2.35,4.4-4.98,10.41-8.75,17.21-9.06,7.06-.33,10.88,4.15,16.35,7.56,2.73,1.7,4.01.75.64,3.46-2.2,1.77-4.65,3.33-7.11,4.73-7.2,4.1-15.3,6-23.16,2.72Z"/>
          <path class="cls-5" d="M293.68,1057.65c-9.78-3.12-19.9.13-25.63,8.24,1.1-3.83,1.1-7.71-1.26-11.4-2.92-4.56-8.12-6.91-12.88-9.04-.7-.31-1.23.51-1,1.11,1.48,3.8-1.19,7.29-1.78,10.85-.45,2.69-.07,5.34.81,7.9.66,1.92,1.54,3.99,3.01,5.3-4.49-1.9-9.56-2.71-14.02-.29-5.6,3.04-7.27,9.99-11.33,14.53-.39.43.07.99.51,1.08,9.3,1.86,17.08,2.05,23.77-3.02-4.28,7.08-4.92,15.92-1.96,23.85.18.49.83.51,1.18.24,4.56-3.44,10.6-6.82,13.31-12.07.97-1.88,1.26-3.89,1.2-5.95.86,1.57,2.02,2.94,3.62,3.93,5.33,3.32,14.49,3.04,20.31,1.49.55-.15.84-.94.27-1.28-2.98-1.79-3.09-5.49-4.29-8.4-1.03-2.5-2.54-4.84-4.52-6.7-1.51-1.42-3.2-2.48-5.01-3.2,7.51-1.38,13.04-9.14,16.14-16.19.16-.37-.09-.87-.46-.99ZM240.63,1086.02c-1.98-.04-4.34-.2-6.27-.68-3.02-.74-2.74-.46-1.19-2.83,2.09-3.19,3.53-7.11,6.49-9.67,5.02-4.34,11.7-2.52,17.28-.42.05.58.29,1.16.69,1.59-.69.82-.78,2.09-.09,2.99.08.11.2.19.31.29-.17.02-.33.09-.46.26-4.42,5.55-9.53,8.62-16.76,8.46ZM262.67,1097.52c-1.41,1.48-3.07,2.7-4.69,3.93-1.42,1.09-3.61,3.63-5,2.64-2.7-1.93-1.53-9.64-1.01-12.41.92-4.92,3.23-9.23,6.34-13.09.02-.03.03-.06.04-.09.05-.06.1-.11.14-.17.15-.19.17-.39.11-.56.49.2,1.05.28,1.55.19-.31,1.09.26,2.43,1.41,2.81.85.28,1.75-.08,2.33-.72.24-.27.46-.64.58-1.04h0c-.04.11-.06.23-.03.37,1.26,6.51,3.39,12.71-1.77,18.15ZM264.27,1077.46c-.09-.37-.62-.27-.58.11,0,.04.02.07.03.11-.06.04-.11.1-.13.18-.12.47-.05.93-.34,1.35-.3.43-.87.75-1.39.56-.91-.33-1.06-1.59-.53-2.29.11-.15.07-.3-.03-.41,0-.29-.25-.57-.57-.51-.81.16-1.55.53-2.21-.24-.43-.5-.42-1.18-.18-1.76.35.16.74.21,1.16.1.44-.11.54-.75.08-.91-.56-.2-1.18-.63-1.31-1.23.02-.08.01-.15-.03-.22,0-.11.02-.22.06-.33.31-.93,1.4-.99,2.14-.61.38.19.71-.37.45-.66-.85-.94-2.44-.79-3.32.05-6.49-2.63-5.11-12.86-3.48-17.68.67-1.99,1.06-3.61.77-5.43,3.51,1.6,7.06,3.38,9.58,6.38,3.95,4.72,2.72,9.83,1.32,15.18.01-.77-.47-1.6-1.12-2-1.76-1.09-3.72.61-4.83,1.86-.44.49.39,1.23.85.77.76-.74,1.89-2.12,3.11-1.78.75.21,1.37,1.14.82,1.81-.21.26,0,.52.26.57-.19.38.23.93.65.68,1.29-.79,3.21-1.05,4.1.52.97,1.7-.78,3.6-2.49,3.64-.04-.02-.07-.06-.11-.08-.48-.23-.79.5-.41.79.71.55.99,1.71.29,2.39-.84.82-2.33.13-2.59-.9ZM286.52,1086.02c1,2.63,1.34,5.41,3.29,7.32-4.91,1-11.64,1.06-16.05-.8-5.49-2.33-6.52-7.68-7.57-12.92.43-.02.86-.15,1.22-.46.9-.75,1.02-2.11.48-3.08.83-.13,1.58-.59,2.14-1.23.14.18.36.32.64.3,7.38-.54,13.3,4.13,15.85,10.87ZM285.68,1069.21c-4.08,3.89-9.28,5.49-14.81,4.02.14-.61.11-1.26-.16-1.89-.52-1.2-1.92-1.99-3.29-2.06,2.25-3.85,5.18-7.21,9.26-9.22,2.02-1,4.26-1.69,6.49-2.01,1.16-.17,7.29-.53,8.31.53,1.94,2.02-4.34,9.24-5.8,10.63Z"/>
          <path class="cls-5" d="M430.19,1089.2c-.99-10.21-7.95-18.24-17.67-20.32,3.95-.49,7.53-2.02,9.98-5.65,3.04-4.48,3.16-10.18,3.24-15.4.01-.76-.95-.93-1.41-.48-2.91,2.86-7.17,1.78-10.67,2.63-2.64.65-4.94,2.03-6.94,3.86-1.5,1.37-3.06,2.99-3.68,4.85-.02-4.87-1.28-9.85-5.26-13-5-3.95-12.05-2.75-17.82-4.69-.55-.18-.88.45-.79.89,1.95,9.28,4.84,16.51,12.14,20.66-8.19-1.15-16.57,1.74-22.69,7.58-.38.36-.15.96.24,1.18,4.96,2.84,10.44,7.06,16.34,7.48,2.11.15,4.08-.37,5.94-1.24-1.1,1.4-1.9,3.01-2.19,4.87-.95,6.2,2.91,14.51,6.63,19.26.35.45,1.2.4,1.29-.25.47-3.44,3.84-5,6.03-7.25,1.89-1.94,3.44-4.24,4.38-6.79.72-1.94,1.02-3.92.97-5.86,4.23,6.36,13.54,8.39,21.23,8.46.41,0,.76-.42.73-.82ZM383.23,1051.6c-.74-1.84-1.52-4.07-1.85-6.03-.51-3.07-.66-2.7,2.13-2.2,3.76.67,7.93.44,11.44,2.15,5.96,2.9,6.92,9.77,7.19,15.72-.52.27-.95.73-1.19,1.26-1.03-.31-2.23.11-2.78,1.1-.07.12-.1.26-.14.4-.08-.15-.22-.27-.42-.32-6.84-1.88-11.68-5.37-14.38-12.07ZM381.33,1076.39c-1.91-.71-3.69-1.76-5.46-2.76-1.56-.88-4.76-1.89-4.39-3.55.72-3.24,8.26-5.2,11.01-5.82,4.88-1.09,9.76-.66,14.54.68.03,0,.06,0,.1,0,.07.02.14.05.21.07.24.06.42,0,.56-.12.01.53.15,1.08.43,1.49-1.13.15-2.13,1.19-2.03,2.4.08.89.77,1.58,1.58,1.86.34.12.78.17,1.18.12h0c-.11,0-.23.04-.35.12-5.49,3.72-10.35,8.13-17.38,5.52ZM400.4,1069.96c.31-.23,0-.68-.33-.49-.03.02-.06.05-.09.07-.06-.04-.13-.06-.22-.05-.48.07-.87.32-1.37.21-.51-.11-1.03-.5-1.06-1.06-.06-.97,1.04-1.6,1.89-1.39.18.04.3-.06.37-.19.27-.11.43-.45.24-.73-.46-.68-1.09-1.21-.65-2.13.29-.59.92-.85,1.55-.86,0,.38.1.76.36,1.1.27.36.9.2.87-.29-.04-.59.12-1.34.61-1.68.08-.01.14-.05.19-.11.1-.04.21-.07.33-.08.97-.08,1.46.9,1.4,1.73-.03.42.62.51.78.16.53-1.15-.23-2.55-1.35-3.04-.13-7,9.81-9.76,14.88-10.16,2.1-.17,3.74-.45,5.29-1.43-.09,3.86-.32,7.82-2.09,11.31-2.79,5.5-7.96,6.37-13.43,7.19.71-.29,1.28-1.06,1.4-1.81.31-2.05-2.02-3.18-3.61-3.71-.62-.21-.97.84-.37,1.09.98.4,2.69.91,2.86,2.16.11.77-.51,1.71-1.34,1.47-.33-.09-.48.2-.42.46-.43-.03-.77.58-.36.87,1.24.88,2.22,2.53,1.13,3.98-1.18,1.56-3.62.7-4.32-.86,0-.05.02-.09.03-.13.02-.53-.77-.53-.89-.06-.22.87-1.18,1.58-2.09,1.21-1.09-.45-1.04-2.09-.19-2.73ZM401.3,1093.79c-2.02,1.95-4.45,3.36-5.44,5.9-2.86-4.12-5.56-10.28-5.58-15.07-.02-5.96,4.49-9.01,8.9-12.04.19.39.48.73.9.94,1.04.53,2.34.11,3.02-.77.44.71,1.17,1.22,1.97,1.48-.11.2-.15.45-.02.71,3.4,6.57,1.44,13.85-3.75,18.85ZM416.42,1086.39c-5.18-2.22-8.7-6.37-9.52-12.03.62-.11,1.21-.39,1.67-.89.89-.95,1.07-2.55.6-3.83,4.42.56,8.67,1.92,12.12,4.88,1.71,1.47,3.23,3.25,4.41,5.17.61,1,3.36,6.49,2.78,7.85-1.09,2.57-10.21-.35-12.06-1.15Z"/>
          <path class="cls-5" d="M2017.24,472.28c-.23-10.79-7.45-18.73-18.33-20.09,4.55-.87,8.75-2.81,11.86-6.89,3.86-5.04,4.49-11.12,5.04-16.68.08-.81-1-.91-1.57-.39-3.57,3.3-8.32,2.52-12.38,3.74-3.07.92-5.8,2.6-8.24,4.72-1.83,1.59-3.75,3.45-4.62,5.49.41-5.19-.59-10.38-4.85-13.38-5.34-3.77-13.48-1.87-19.87-3.43-.61-.15-1.05.56-.98,1.02,1.41,9.71,4.06,17.16,12,20.94-9.23-.51-19.02,3.31-26.5,10.07-.46.42-.25,1.04.17,1.24,5.4,2.59,11.27,6.6,17.94,6.53,2.39-.02,4.67-.75,6.87-1.84-1.38,1.59-2.43,3.37-2.92,5.38-1.63,6.69,2.04,15.2,5.85,19.93.36.44,1.33.32,1.49-.38.84-3.71,4.81-5.66,7.5-8.25,2.32-2.23,4.29-4.82,5.58-7.62.98-2.13,1.5-4.26,1.62-6.33,4.26,6.4,14.68,7.74,23.43,7.15.46-.03.91-.52.9-.93ZM1967.06,436.36c-.68-1.89-1.38-4.2-1.57-6.26-.31-3.22-.52-2.82,2.62-2.53,4.22.38,8.98-.22,12.84,1.29,6.54,2.57,7.03,9.79,6.8,16.11-.61.34-1.15.86-1.47,1.45-1.14-.24-2.54.31-3.26,1.41-.08.13-.14.29-.2.44-.08-.15-.22-.26-.45-.31-7.62-1.4-12.83-4.69-15.31-11.6ZM1962.73,462.93c-2.12-.59-4.05-1.55-5.97-2.46-1.7-.8-5.25-1.59-4.69-3.4,1.1-3.51,9.86-6.26,13.05-7.16,5.65-1.59,11.17-1.56,16.49-.55.04,0,.07,0,.11,0,.08.02.15.04.23.05.26.05.48-.04.64-.18-.03.57.08,1.13.36,1.55-1.29.26-2.53,1.46-2.52,2.73.01.94.73,1.61,1.64,1.84.38.09.87.12,1.33.03h0c-.13.02-.27.06-.41.16-6.57,4.44-12.5,9.56-20.27,7.4ZM1985,454.41c.37-.27.07-.72-.33-.5-.04.02-.07.06-.11.08-.07-.04-.15-.06-.25-.03-.55.12-1.02.42-1.58.35-.57-.07-1.13-.44-1.11-1.04.02-1.02,1.33-1.8,2.28-1.65.2.03.35-.09.44-.23.32-.14.53-.52.34-.79-.47-.68-1.14-1.2-.55-2.21.38-.66,1.12-.98,1.84-1.05-.04.41.05.8.32,1.14.28.36,1.01.14,1.01-.38,0-.62.25-1.43.85-1.85.09-.02.17-.06.23-.14.12-.05.24-.09.38-.11,1.12-.18,1.58.83,1.45,1.72-.07.45.66.49.88.1.7-1.28-.04-2.7-1.27-3.12.46-7.44,12.02-11.26,17.83-12.13,2.4-.36,4.29-.81,6.15-1.99-.44,4.12-1.05,8.36-3.37,12.23-3.65,6.1-9.63,7.49-15.93,8.84.83-.37,1.55-1.24,1.75-2.05.53-2.21-2.02-3.21-3.79-3.64-.69-.17-1.18.98-.51,1.19,1.08.34,2.98.73,3.07,2.05.05.81-.73,1.86-1.66,1.68-.36-.07-.56.26-.52.53-.49,0-.92.69-.49.95,1.33.82,2.31,2.5.94,4.14-1.48,1.76-4.18,1.07-4.85-.54,0-.05.03-.09.04-.14.07-.57-.83-.5-1,.01-.33.94-1.48,1.79-2.48,1.47-1.2-.38-1-2.13.02-2.9ZM1983.94,479.7c-2.47,2.25-5.36,3.97-6.71,6.76-2.89-4.13-5.43-10.46-5.03-15.56.5-6.35,5.91-9.99,11.19-13.61.18.4.48.73.94.92,1.14.48,2.66-.09,3.51-1.09.44.72,1.22,1.2,2.11,1.41-.15.23-.21.49-.08.75,3.29,6.7.42,14.62-5.93,20.41ZM2001.8,470.5c-5.71-1.91-9.35-6.02-9.79-11.97.72-.17,1.41-.52,1.98-1.09,1.1-1.09,1.45-2.81,1.02-4.14,4.99.2,9.7,1.29,13.37,4.13,1.82,1.41,3.39,3.18,4.56,5.12.61,1.01,3.25,6.62,2.48,8.11-1.47,2.84-11.59.52-13.63-.17Z"/>
          <path class="cls-5" d="M2359.77,687.49c-.5-10.61-7.65-18.6-18.14-20.22,4.35-.74,8.33-2.54,11.22-6.47,3.58-4.86,4.03-10.81,4.41-16.26.06-.8-.99-.92-1.51-.42-3.34,3.15-7.93,2.26-11.81,3.36-2.93.83-5.5,2.4-7.8,4.43-1.72,1.51-3.52,3.3-4.3,5.28.26-5.09-.83-10.22-5-13.28-5.23-3.84-13-2.19-19.19-3.89-.59-.16-.99.52-.92.98,1.6,9.58,4.35,16.97,12.08,20.89-8.88-.73-18.19,2.76-25.21,9.21-.43.4-.21,1.01.2,1.22,5.25,2.68,11,6.78,17.42,6.88,2.3.04,4.47-.62,6.56-1.63-1.28,1.53-2.25,3.25-2.67,5.22-1.39,6.53,2.36,14.99,6.14,19.74.36.45,1.29.35,1.42-.34.71-3.62,4.47-5.44,7-7.91,2.18-2.13,4-4.63,5.17-7.34.89-2.07,1.33-4.15,1.39-6.18,4.26,6.4,14.31,7.99,22.71,7.63.44-.02.86-.48.84-.89ZM2310.61,650.89c-.7-1.88-1.43-4.16-1.67-6.19-.38-3.17-.57-2.78,2.45-2.42,4.06.48,8.63.01,12.37,1.6,6.35,2.69,7.01,9.81,6.95,16.01-.58.31-1.08.81-1.37,1.39-1.1-.27-2.44.24-3.1,1.3-.08.13-.12.28-.18.42-.08-.15-.22-.27-.44-.31-7.36-1.57-12.45-4.94-15.02-11.79ZM2307.14,676.89c-2.05-.63-3.93-1.63-5.81-2.57-1.65-.83-5.09-1.7-4.59-3.46.97-3.42,9.32-5.9,12.36-6.7,5.39-1.42,10.7-1.25,15.83-.12.04,0,.07,0,.1,0,.08.02.15.04.23.06.26.05.46-.02.61-.16-.02.55.1,1.11.39,1.54-1.24.22-2.4,1.37-2.35,2.62.04.92.75,1.6,1.62,1.85.37.1.84.14,1.28.06h0c-.13.02-.26.05-.39.14-6.2,4.19-11.77,9.07-19.29,6.75ZM2328.33,669.09c.35-.26.04-.71-.33-.5-.04.02-.07.05-.1.08-.06-.04-.14-.06-.24-.04-.53.1-.97.39-1.51.3-.55-.09-1.09-.47-1.1-1.05,0-1.01,1.23-1.73,2.15-1.56.19.04.33-.08.42-.22.3-.13.5-.5.31-.77-.47-.68-1.12-1.21-.59-2.19.35-.64,1.05-.94,1.74-.98-.03.4.07.79.33,1.13.28.36.97.16.96-.35-.01-.61.2-1.4.77-1.79.09-.01.16-.06.22-.13.11-.05.23-.08.36-.1,1.07-.14,1.54.86,1.43,1.73-.06.44.65.5.85.12.64-1.23-.11-2.65-1.3-3.1.25-7.3,11.26-10.75,16.82-11.46,2.3-.29,4.11-.68,5.86-1.8-.32,4.03-.8,8.19-2.93,11.94-3.35,5.9-9.06,7.11-15.08,8.27.79-.35,1.46-1.18,1.63-1.97.46-2.16-2.03-3.2-3.73-3.67-.66-.18-1.11.93-.46,1.16,1.05.36,2.89.79,3,2.09.07.8-.65,1.81-1.55,1.61-.35-.08-.53.24-.48.51-.47,0-.87.65-.45.92,1.3.85,2.28,2.52,1.01,4.09-1.37,1.69-3.99.94-4.67-.65,0-.05.03-.09.04-.14.06-.56-.81-.51-.96-.01-.29.92-1.38,1.72-2.35,1.38-1.16-.41-1.01-2.12-.05-2.84ZM2327.95,693.93c-2.32,2.15-5.05,3.76-6.27,6.47-2.89-4.14-5.49-10.42-5.24-15.42.31-6.22,5.42-9.67,10.4-13.08.18.4.48.73.93.93,1.11.5,2.55-.02,3.34-.98.44.72,1.2,1.21,2.07,1.44-.14.22-.19.48-.06.74,3.34,6.67.79,14.38-5.17,19.9ZM2344.88,685.34c-5.53-2.02-9.14-6.16-9.72-12.02.68-.15,1.34-.48,1.88-1.02,1.03-1.04,1.32-2.72.88-4.04,4.8.33,9.36,1.52,12.96,4.41,1.79,1.43,3.34,3.21,4.52,5.15.61,1.01,3.3,6.59,2.59,8.04-1.34,2.75-11.12.21-13.1-.51Z"/>
          <path class="cls-5" d="M316.37,597.3c.47-.06.94-.15,1.4-.22,8.47,1.95,17.39,2.58,25.34-1.58,7.65-4,12.91-11.21,17.87-18.04.45-.61-.39-1.19-.94-.94-7.18,3.28-15.87,1.76-23.36,4.82-2.77,1.13-5.42,2.6-7.76,4.47-3.84,3.08-6.44,8.56-11.73,9.19-.47.06-.67.54-.55.88-.14.04-.24.13-.3.25-20.43,2.11-41.32,1.07-60.27-6.84,11.12,3.01,22.66,6.35,34.06,5.34,5.47-.48,10.86-1.88,15.87-4.14,7.2-3.25,13.31-8.28,20.97-10.55.76-.22.68-1.2,0-1.46-12.17-4.61-24.82-8.84-37.69-4.49-13.83,4.67-26.78,16.82-42.19,10.84-.08-.03-.16-.02-.23,0-13.91-7.82-27.15-18.74-38.35-30.93,14.99,11.93,34.58,17.03,53.62,14.95.94-.1.98-1.44,0-1.49-9.67-.47-14.36-9.45-21.43-14.62-3.25-2.38-6.94-4.27-10.73-5.82,8.29,2.13,16.88,3.09,25.44,2.69,11.52-.53,22.66-3.78,33.99-5.63.96-.16.74-1.79-.23-1.7-12.62,1.12-17.67-12.12-25.89-18.98-5.81-4.85-13.07-7.18-20.46-8.26-19.42-2.83-40.18-.64-59.77-.22-7.08-16.81-11.78-35.05-18.65-51.9,7.01,10.78,18.39,18.53,30.81,21.8,18.76,4.95,36.15-3.97,54.7-5.18.94-.06,1.15-1.35.22-1.65-9.02-2.87-15.56-9.37-23.27-14.52-6.16-4.11-13.02-7.09-20.17-8.99-14.89-3.96-30.71-3.29-45.56.51-.08.02-.14.06-.21.1-5.64-12.01-12.84-23.03-23.42-31.93-.98-.83-2.4.54-1.43,1.43,18.36,16.91,26.62,39.9,34.26,63.02.45,1.37.92,2.73,1.38,4.1-.18.12-.44.27-.98.48-3.39,1.28-6.3,3.92-9.91,5.19-5.08,1.78-10.4,2.84-15.43,4.8-8.41,3.27-16.11,8.55-21.79,15.6-13.81,17.14-5.95,40.3-17.46,58.04-.54.83.51,1.79,1.32,1.32,18.76-10.9,44.15-5.05,59.74-22.22,11.96-13.17,13.43-30.5,10.41-47.06,3.92,9.83,8.43,19.29,14.18,28.21-.09.13-.15.28-.13.49,1.35,12.93-2.25,23.68-8.35,34.9-4.14,7.62-7.9,15.2-7.32,24.11.6,9.32,4.28,18.76,8.23,27.14,4.67,9.9,11.89,18.6,14.24,29.47.17.78,1.42.98,1.77.23,8.22-17.57,20.21-37.2,21.74-56.94,1.03-13.33-3.23-26.38-11.52-36.54,7.73,7.94,16.33,15.48,25.56,21.71.04.09.08.18.12.28-.21.11-.31.43-.04.59.14.08.27.16.41.24,3.83,8.63,6,16.38,5.99,26.13,0,6.92.39,13.37,2.87,19.91,4.34,11.47,13.12,20.6,24.2,25.7.77.36,1.47-.51.9-1.17-10.91-12.78-5.61-30.18-9.13-45.24-2.04-8.73-7.36-14.84-14.03-19.67,2.09,1.09,4.2,2.13,6.34,3.06,9.89,4.31,20.43,6.81,31.12,7.77.05.21.12.4.18.6-.13.1-.2.29-.05.41.07.06.15.12.22.18,8.27,28.41,43.19,32.17,67.35,24.24.69-.23.57-1.24-.17-1.27-12.88-.43-22.38-9.52-33.68-14.42-10.2-4.43-22.47-2.59-31.57-9.54-.03-.03-.07-.03-.1-.05,9.84.69,19.79.12,29.48-1.55.05.03.1.06.17.08.14.04.29.07.43.1-.25.06-.5.12-.75.17-.14.03-.08.23.06.21ZM358.3,578.67c-.13.12-.28.34-.46.77-1.46,3.47-5.76,7.38-8.56,9.91-8.36,7.55-17.89,8.46-28.22,7.14,13.67-2.75,26.29-9.18,37.22-17.82,0,0,.01,0,.02,0ZM328.23,588.21c7.48-7.01,16.62-7.58,26.21-8.76.27-.03,1.06-.21,1.88-.39-10.95,8.52-23.26,13.9-36.68,17.23-.44-.06-.89-.13-1.33-.2,4.49-.76,6.63-4.8,9.92-7.89ZM313.68,584.62c-4.85,2.88-9.75,5.53-15.22,7.06-11.56,3.23-22.57,1.12-33.95-1.59-.64-.15-2.79-.73-5.13-1.29,2.55.08,4.83.1,5.08.09,20.17-.45,39.49-7.9,59.58-9.49-1.53,1.04-9.41,4.64-10.37,5.21ZM293,574.5c6.35-1.54,12.86-.9,19.13.66,1.38.34,9.75,2.39,11.75,3.56-22.82.94-44.75,10.89-67.6,8.8,12.79-.01,24.16-9.98,36.72-13.03ZM210.66,457.36c12.74,4.26,21.94,14.4,33.69,19.98-28.59-2.24-55.05-10.04-81.41-21.08,15.77-3.57,32.22-4.09,47.73,1.1ZM161.89,457.04c-.08-.17-.15-.34-.23-.5.11-.03.22-.05.33-.07,24.96,13.33,53.77,20.13,81.91,22.06-14.73,2.21-29.1,8.13-44.14,5.5-16.25-2.85-29.23-13.1-37.76-26.9-.03-.05-.07-.05-.11-.08ZM122.05,523.09c5.94-9.49,15.4-16.24,25.86-19.94,4.41-1.56,9.01-2.52,13.43-4.06,1.31-.46,7.8-3.63,10.62-5.48,0,0,0,0,0,.01.09.1.17.19.26.29.09.1.22.16.35.2.21.6.43,1.18.64,1.78-6.27,16.8-16.5,31.43-28.63,44.53-10.8,11.66-23.23,21.45-34.63,32.42,7.47-15.6,2.66-34.68,12.1-49.75ZM159.56,558.94c-14.54,9.83-33.49,7.41-49.19,14.46,26.07-19.08,51.57-44.88,63.69-75.15.35.98.69,1.97,1.06,2.95,4.17,20.63,3.42,44.91-15.55,57.74ZM246.8,560.54c3.14,3.11,6.25,5.78,10.07,7.21-.17,0-.33,0-.49.01-28.63-5.75-49.97-23.01-68.3-44.98,8.07,8.54,18.19,15.2,29.05,19.77,2.94,2.25,6.29,4.03,9.8,5.12.08.03.16.03.22.02,7.32,3.39,13.55,6.83,19.65,12.86ZM216.38,516.04c10-.15,20.32-.75,30.16,1.42,10.92,2.4,17.14,8.38,24.15,16.61,2.39,2.81,4.98,5.4,7.93,7.25-15.21-2.5-30.3-5.46-45.23-9.41-16.25-4.3-31.93-9.96-47.78-15.47,10.26-.11,20.51-.24,30.77-.39ZM183.97,516.45c30.49,13.69,64.69,22.11,97.83,26.47.36.14.71.29,1.08.4-18.26,3.2-35.22,6.67-53.97,1.64-17.9-4.8-32.65-15.01-44.97-28.52.01,0,.02,0,.03,0ZM187.62,524.68c16.09,19.52,37.16,38.05,62.35,43.07-16.11-.78-31.19-6.8-44.19-16.9-3.5-3.99-6.79-8.1-9.79-12.26-3.17-4.4-5.91-9.06-8.37-13.9ZM200.15,648.02c-.16.32-.32.65-.47.97-2.29-7.84-6.91-14.49-10.84-21.67-5.46-9.96-11.15-22.73-10.99-34.36.15-10.74,6.97-19.38,11.2-28.78,3.69-8.2,5.07-16.79,4.44-25.66.29.43.6.86.9,1.29,15.17,34.91,17.25,71.5,5.73,107.89-.04.13-.02.24.02.32ZM219.61,599.38c-2.46,14.66-9.71,28.9-16.46,42.53,9.86-30.89,7.95-66.43-5.23-96.08.35.36.72.71,1.07,1.05.16.15.31.3.47.45,1.05,2.04,2.58,4,4.47,5.21-.05.09-.07.2.03.3,11.92,12.15,18.5,29.51,15.65,46.54ZM244.53,619.21c-1.23-7.12.05-14.37-.98-21.5-.75-5.18-2.67-10.06-4.85-14.79.37.22.75.45,1.12.68,9.57,10.69,11.98,24.72,13.49,38.86.49,4.58.72,9.17,2.85,13.35,2.55,5,6.54,9.55,9.96,14.03-11.18-6.59-19.36-17.64-21.6-30.64ZM253.73,594.7c6.29,7.44,7.31,16.89,7.57,26.26.25,9.1.31,18.37,4.27,26.38-3.42-4.41-7.21-8.88-9.18-13.97-2.63-6.77-2.17-14.75-3.35-21.9-1.58-9.62-4.63-19.08-10.88-26.41,4.26,2.73,8.31,5.79,11.57,9.64ZM347.95,623.1c.42.02.85.05,1.27.06.12,0,.2-.04.26-.1.62-.03.64-.03-.94.36-3.68.89-7.25,1.8-11.02,2.29-7.8,1.02-15.71.76-23.31-1.4-12.5-3.56-22.37-12.14-27.59-23.83,17.12,13.53,39.19,21.64,60.98,22.61.12,0,.24.01.36.02ZM315.14,607.89c9.58,3.28,17.52,10.33,27,13.74-20.53-2.77-38.86-10.16-56.02-22.34-.15-.37-.32-.74-.46-1.12.31.03.62.05.94.07-.41.14-.71.75-.3,1.07,8.39,6.58,19.17,5.26,28.84,8.58Z"/>
          <path class="cls-5" d="M366.32,553.76c2.78-7.26,7.38-12.33,7.1-20.46-.22-6.37-2.39-12.06-5.43-17.48.02-.08.03-.15.05-.23,1.71,1.43,3.44,2.84,5.21,4.2-.12.14-.2.33-.17.57.03.19.07.39.1.58-.27.15-.25.6.12.68,1.18,6.85,4.57,14.07,10.12,18.33,6.76,5.18,15.81,5.21,23.91,5.17.75,0,1.09-.8.66-1.38-3.51-4.76-5.39-10.96-9.15-15.6,4.13-.7,7.55-2.11,11-4.62.39-.29.24-1.06-.24-1.16-5.73-1.19-8.18-7.58-13.77-8.91-7.56-1.81-13.13,6.03-20.34,7.25-6.63-5.72-12.84-11.79-18.72-18.11,4.73,3.59,10.03,6.46,15.98,7.29,9.27,1.3,18.63-3.8,27.01-7.02.74-.28.44-1.52-.32-1.51-4.39.09-8.47-4.88-12.2-6.81-3.3-1.7-6.88-2.83-10.57-3.31-9.34-1.19-17.74,3.6-26.9,3.51-5.28-6.11-10.3-12.42-15.17-18.86,11.04,7.86,27.83,7.9,39.73,2.93.62-.26.42-1.11-.1-1.32-5.52-2.28-7.12-8.78-12.41-11.16,6.4-2.2,12.41-5.8,18.31-9.54.55-.35.5-1.42-.3-1.38-13.91.59-24.76-8.86-37.91-11.55-9.17-1.87-18.14.58-25.14,6.59-.13-.02-.25,0-.35.04-5.03-7.31-10-14.68-15.01-22.03,4.3,3.18,9.54,5.3,14.55,6.46,8.67,2,17.08-1,24.96-4.5h.02c.23,0,.4-.09.51-.23.89-.4,1.78-.8,2.66-1.2.62-.28.39-1.28-.28-1.3-12.32-.23-19.1-11.75-30.6-13.97-6.71-1.3-13.27,1.19-17.73,6.14-.34-.49-.68-.97-1.02-1.46.01-.11.03-.23.04-.34.03-.24-.28-.35-.45-.24-1.17-1.69-2.34-3.38-3.52-5.05-.91-1.29-2.72.36-1.82,1.64,1.14,1.62,2.26,3.28,3.39,4.92-.1,0-.2.03-.31.09-23.15,11.76-18.4,40.45-13.12,61.05.18.71,1.09.7,1.36.07,2.86-6.43,8.26-11.11,12.04-16.96,1.06-1.64,2.03-3.34,2.91-5.08,3.2,6.68,7.42,12.64,12.33,18.18.28.32.92.24,1.02-.21,2.44-11,4.81-22.65.08-33.05,4.44,6.61,8.92,13.21,13.52,19.71-7.17,7.79-11.2,17.84-11.3,28.48-.05,4.96.75,9.95,2.46,14.61,2.57,7.02,7.53,12.78,9.99,19.86.27.77,1.4.77,1.48-.12,1-10.5,9.82-17.91,8.29-28.96-1.47-10.56-8.27-19.3-8.28-30.17,5.76,8,11.72,15.82,18.07,23.28-1.39,9.85-9.79,15.4-8.81,26.22.93,10.25,7.4,18.98,11.69,28.02.37.79,1.59.49,1.63-.35.55-10.23,6.91-18.66,5.96-29.18-.58-6.46-2.59-12.97-5.44-18.98,5.9,6.53,12.12,12.74,18.82,18.47,0,.04,0,.07.01.11-12.75,8.21-6.67,28.27-1.69,39.44.3.67,1.25.5,1.49-.11ZM405.84,543.48c-6.68.03-13.83-.14-19.67-3.7-6.4-3.9-9.6-11.04-11.33-18.06,8.1,9.29,18.27,16.94,29.76,21.49.16.06.29-.2.14-.28-10.79-5.53-20.17-12.26-28.38-21.12.03-.05.05-.11.04-.17,6.11,2.58,13.36.75,18.74,5.29,5.06,4.27,7.12,11.06,10.7,16.55ZM405.62,524.85c-1.92,1.63-4.84,2.2-7.3,2.69-.64-.73-1.33-1.42-2.09-2.05-2.04-1.68-4.28-2.51-6.61-2.97,5.67.44,11.35.69,17.05.65,1.11.37,2-.89-1.05,1.69ZM380.23,520.52c6.94-2.74,13.28-8.73,20.48-2.3,1.42,1.27,4.02,2.91,5.19,4.36-8.57-.61-17.13-1.16-25.67-2.06ZM338.29,430.32c-2.85,1.09-6.75,2.29-6.47,2.2-3.52,1.07-7.15,1.82-10.85,1.68-6.05-.22-12.34-2.86-17.48-6-1.72-1-3.29-2.19-4.73-3.58-.11-.16-.21-.31-.32-.47-.27-2.22.47-2.73,2.22-1.48,1.92-.18,5.49,1.91,7.29,2.45,9.88,2.99,20.05,4.64,30.34,5.19ZM315.31,415.67c6.23,2.04,10.95,6.89,16.58,10.02,1.27.71,9.18,4.16,9.27,3.15,0,.09-.13.2-.31.32-9.33-.25-18.54-1.38-27.59-3.71-5.46-1.41-11.49-4.96-17.2-4.76,0,0-.01-.01-.01-.02,5.23-5.01,12.13-7.33,19.28-4.99ZM275.86,448.56c.87-11.4,6.22-22.37,16.64-27.8.18-.09.28-.23.34-.38.18.26.36.52.53.77,0,.04-.02.09-.02.13-.13.05-.22.19-.14.33.02.03.04.07.06.1-3.3,18.56-4.37,39.1-14.14,55.41-1.11-2.44-1.83-9.53-2.06-10.87-1.03-5.84-1.65-11.76-1.2-17.69ZM288.27,466.7c-.46.6-4.1,5.04-6.49,8.14,8.11-15.46,9.97-34.76,12.13-52.05,5.3,9.19,5.98,19.74,2.33,29.8-1.85,5.1-4.68,9.81-7.97,14.11ZM303.48,469.98c-2.96-4.05-5.4-8.38-7.78-12.79-.01-.02-.03-.03-.04-.05,1.46-3.13,2.6-6.39,3.3-9.78.81-3.95.97-7.95.44-11.83,4.07,12.4,5.52,25.22,7.67,38.19-1.39.18-2.73-2.57-3.6-3.75ZM308.94,468.27c-.15.8-.36,3.84-1.18,5.01-.81-15.13-3.23-30.55-9.21-44.52,2.5,3.69,4.99,7.39,7.48,11.1-.02.05-.02.12.02.19,5.13,8.7,4.74,18.62,2.88,28.23ZM362.46,453.39c3.07,1.25,6.23,2.36,9.48,2.98-18.26,1.66-36.41-.22-54-5.57,14.68-11.01,29.2-3.63,44.52,2.59ZM330.41,455.42c15.17,3.15,30.64,3.59,46,1.7.34-.04.47-.29.46-.55.5.01.24.27-1.33,1.38-6.53,4.63-14.91,8.39-22.89,9.03-9.02.72-21.83-1.58-28.68-8-1.06-1-5.57-6.39-5.27-6.51,1.67-.65,9.87,2.57,11.71,2.95ZM322.37,459.08c-.29-.41-.58-.81-.87-1.22,6.22,6.14,13.24,8.95,23.37,10.36,5.36.74,10.38.12,15.18-1.32.06.07.14.13.25.16,4.71,1.53,6.15,6.02,9.42,9.2-.05-.05,1.18,1.04,1.98,1.65-17.88-2.76-36.21-5-49.34-18.84ZM313.31,501.85c-2.56-10.27-.88-21.55,4.45-30.68.43-.74,2.54-4.91,3.39-4.79.84.12-.12,4.27-.29,6.23-.43,4.96-.48,9.95-.12,14.92.82,11.51,3.93,22.69,2.12,34.21-3.18-6.65-7.74-12.58-9.56-19.89ZM330.6,493.56c2.82,10.65-3.61,17.86-6.39,26.89.96-7.12.16-14.13-.85-21.32-1.62-11.53-2.12-22.72-.13-34.19.22.31.45.63.67.94-.01.03-.04.04-.04.07-1.45,9.86,4.3,18.42,6.74,27.62ZM325.9,464.07c12.8,10.37,29.81,13.33,46.08,14.47-1.52.59-7.01,1.71-7.7,1.83-10.89,1.87-23.91-.71-32.49-8.19-1.99-2.68-3.94-5.39-5.89-8.1ZM335.86,518.6c-1.17-6.45.4-11.72,3.58-17.26,1.29-2.26,3.09-4.57,3.87-7.13.16,1.68.63,3.61.65,3.76.58,4.1,1.12,8.21,1.54,12.34,1.03,10.1,1.21,20.11.02,30.19-3.71-7.06-8.24-14.01-9.67-21.89ZM351.6,517.67c-.03,6.26-2.59,11.85-4.41,17.65,1.01-14.36-.64-28.67-2.6-42.94.03.04.06.07.09.1,3.82,7.88,6.95,16.43,6.91,25.18ZM351.05,496.26s-.04-.05-.06-.08c.11-.04.39-.1.93-.19.65-.11,3.76-.34,3.85-.35,9.15-1.44,16.58-4.62,25.93-1.74,4.91,1.52,9.11,6.39,13.88,8.28,0,0-.01,0-.02,0-9.17,2.8-19.95.18-29-1.93-4.41-1.03-8.66-2.63-13.04-3.69-.93-.23-2.1-.25-2.47-.3ZM352.06,497.39c-.15-.17-.3-.33-.45-.5,7,2.38,14.09,4.39,21.39,5.75,6.16,1.15,12.61,2.43,18.85,1.61-6.13,2.44-12.52,4.7-18.9,3.83-7.95-1.08-14.72-5.81-20.86-10.68,0,0-.02,0-.03-.01ZM369.16,544.54c-.45.88-1.23,2.79-2.07,4.29-.32-10.56-1.27-21.52.68-31.92,4.08,8.63,5.84,18.9,1.39,27.64ZM361.18,536.81c-.85-5.47-1.28-11.77,1.61-16.76.48-.82,2.34-4.03,3.83-3.06.15.1-.53,5.63-.57,6.37-.46,8.97-.14,18.05-.06,27.03-.26.27-.51.44-.75.48-1.18.16-3.8-12.34-4.06-14.07Z"/>
          <g>
            <path class="cls-5" d="M2448.93,572.39c4.35-8.73-.13-18.98-8.04-23.89-3.36-2.09-6.94-3.24-10.62-3.75,7.12-1.4,12.26-6.73,14.97-13.64,2.69-6.87,3.82-14.62-4.46-17.1-5.14-1.54-4.42-.19-9.02-7.33-1.03-1.6-1.54-3.03-2.96-4.36-2.28-2.13-5.36-3.33-8.41-3.75-9.02-1.23-16.39,4.76-22.17,11.08.43-4.21.01-8.34-1.82-12.15-5.22-10.86-18.04-9.99-26.53-3.82-4.97,3.61-8.84,4.13-14.71,3.69-2.88-.22-5.2-.12-7.54,1.76-3.75,3.01-4.54,8.84-3.96,13.28.19,1.49.56,2.93,1.03,4.35-6.3-4.61-14.5-7.8-21.82-3.38-3.13,1.89-5.21,4.86-5.94,8.44-.46,2.24-.2,4.54-.22,6.8-.06,5.54-1.48,8.68-5.19,12.83-4.7,5.25-7.44,10.62-2.31,16.98,5.04,6.24,13.21,6.02,20.15,3.56-.51.4-1.01.79-1.51,1.21-5.24,4.48-10.32,10.92-11.21,17.99-.78,6.19,2.01,7.57,6.74,10.5,8.84,5.49,13.31,21.66,26.31,14.14,3.33-1.92,6.17-4.91,8.7-8.11,0,8.91,1.02,21.19,11.55,23.69,6.33,1.5,11.68-3.64,18.11-1.5,4.31,1.44,7.94,4.86,12.75,3.48,9.25-2.65,10.59-15.28,9.86-23.16-.46-4.95-1.54-9.91-3.21-14.65,7.75,8.23,19.79,18.06,31.79,12.4,3.6-1.7,6.44-4.93,7.56-8.76.64-2.19.4-4.04.12-6.23-.1-.75-.31-1.13-.54-1.41.07-1.72.02-3.44.04-5.16.48-1.43,1.85-2.68,2.53-4.03ZM2354.05,498.92c1.43.2,2.86.4,4.3.59,3.59.27,5.81,0,8.88-1.77,4.79-2.75,8.11-6.69,14.09-7.1,9.13-.62,15.04,6.61,15.29,15.26.31,10.73-6.31,22.12-10.08,31.88-.02.06-.02.11-.03.16-1.78-.03-3.43,1.21-3.98,2.9-.04-.13-.11-.24-.16-.35.02-.05.04-.1.04-.16.24-5.67.48-11.33.75-17,1.69-.26,2.8-2.15,2.68-3.77-.14-1.81-1.78-3-3.54-2.89-1.77.11-3.29,1.46-3.15,3.31.12,1.66,1.51,3,3.17,3.02.08.12.21.21.35.27-.81,5.29-1.26,10.68-1.3,16.03-.96-.65-2.33-.84-3.77-.66-4.11-8.69-10.17-15.9-17.94-21.63.2-.41.27-.92.26-1.32-.01-.85-.35-1.7-.91-2.34-1.29-1.45-3.45-1.19-4.63.24-1.17,1.41-1.08,3.54.54,4.56,1.26.79,2.94.57,3.96-.46.01,0,.02,0,.03,0,.21-.05.38-.16.52-.31,7.28,5.79,12.97,13.13,16.93,21.51-2.44.64-4.8,2.21-5.46,4.24-8.14-6.56-17.49-13.56-22.72-22.72-1.76-3.09-3.02-6.77-3.04-10.38-.35-5.53,2.62-9.24,8.93-11.13ZM2389.48,544.18c.16.08.37.08.55-.07.86-.68,2.34-.65,3.02.26.69.92.31,2.2-.54,2.85-.53.4-.27,1.15.25,1.23.06.04.14.06.23.05,2.42-.28,5.01.87,5.8,3.34.88,2.71-1.02,5.37-3.6,6.09-1.05.3-.61,1.9.45,1.64.44-.11.86-.27,1.26-.47.15.16.38.26.62.21,1.19-.21,1.44.94.6,1.68-.86.75-2.19.57-3.24.46-.32-.03-.44.31-.34.56-.01,0-.02,0-.03-.01-.63-.11-1.01.68-.44,1.05.75.49,1.29.95,1.45,1.88.15.85-.06,1.84-.71,2.44-1.62,1.52-4.02.37-5.19-1.07-.14-.18-.33-.19-.49-.12-.36-.26-1.01-.11-1.12.37-.36,1.63-.84,3.15-2.58,3.79-1.51.56-3.15.05-4.26-1.03.05-.21.09-.42.1-.65.01-.78-1.16-.94-1.36-.18-.39,1.41-1.56,2.79-3.21,2.34-1.61-.43-2.07-2.07-1.94-3.53,0-.03.02-.06.02-.09.06-.45-.52-.69-.86-.49-.64.37-1.03,1.06-1.7,1.43-.09.05-.19.08-.29.13-.25-.68-1.41-.6-1.62.2-.15-.03-.29-.07-.43-.14-.87-.46-1.18-1.78-.69-2.6.23-.14.44-.32.62-.54.45-.55-.11-1.38-.78-1.01-1.19.65-2.86.89-3.68-.53-.77-1.35.14-3.03,1.43-3.61.34-.15.17-.57-.13-.65.09-.09.19-.16.27-.28.35-.51-.32-1.1-.82-.82-.87.5-2.09.01-2.19-1.09-.09-.95.55-1.68,1.3-2.23.05-.03.1-.06.14-.1.29-.2.6-.38.88-.53.33-.18.17-.56-.12-.64,0-.35-.3-.69-.73-.6-1.56.32-1.78-1.47-.88-2.37.95-.95,2.47-.9,3.7-.74.12.02.2-.05.24-.14.1-.03.19-.05.29-.1.35-.18.34-.74,0-.92-.65-.34-1.22-.42-1.65-1.1-.36-.56-.51-1.37-.07-1.93.86-1.12,2.75-.55,3.28.58.22.47.86.21.9-.22,0,0,0,.01,0,.02.21.38.85.12.7-.3-.18-.52-.2-1.02-.13-1.51.08-.11.11-.25.07-.38.53-1.93,2.82-3.45,5.03-3.95.09.19.18.37.27.56.32.73,1.4.1,1.08-.63-.01-.03-.03-.06-.05-.09,1.7-.06,3.12.61,3.29,2.34.08.78,1.21.81,1.23,0,.25.06.53-.04.6-.33.36-1.72,2.19-3.15,3.96-2.45,1.65.65,1.96,2.46,1.59,3.99-.11.44.26.75.62.73ZM2382.7,521.88c-.22.06-.35.18-.44.32-1.95-.6-2.33-3.83.13-3.96,2.41-.12,2.32,3.04.31,3.64ZM2358.5,515.9c-.02.41-.27.74-.3,1.13-1.62,1.21-4.28-.71-2.66-2.55.73-.83,1.89-.84,2.55.08.27.38.43.87.41,1.34ZM2308.57,553.67c-2.42-7.42,5.96-10.71,8.67-16.25,2.47-5.05.29-10.77,1.95-15.98,3.91-12.29,17.78-8.78,25.67-2.75.19.14.39.14.57.07,4.56,10.78,16.23,19.44,25.28,25.49,0,.3.03.61.11.92-1.09-1.61-3.83-1.86-5.06-.2-.75,1.01-.66,2.42-.03,3.47.14.23.32.45.52.66-.27,0-.54.02-.81.05-.05-.06-.11-.11-.2-.13-9.34-2.49-18.69-3.24-28.28-2.3-.16-1.53-1.63-2.74-3.15-2.78-1.71-.05-2.94,1.41-3,3.05-.06,1.61,1.11,3.11,2.78,3.13.73,0,1.46-.26,2.02-.72.56-.46.75-.98.86-1.63.28-.07.51-.29.52-.69,0-.05-.01-.1-.01-.16,9.17-.56,18.18.32,27.07,2.66-.61.34-1.1.87-1.36,1.68-.27.85.02,1.82.59,2.48-10.98-2.07-22.42.36-31.65,6.58-8.04,2.31-19.78,3.44-23.07-6.64ZM2335.8,547.6c-.73,1.31-3.27,1.32-3.34-.44-.03-.73.38-1.54,1.17-1.64.91-.11,1.78.65,1.88,1.54.03.24.14.42.29.54ZM2353.5,600.39c-6.27,6.29-13.6,7.09-19.43.25-2.5-2.94-4.5-6.36-7.53-8.82-1.25-1.02-3.06-1.59-4.2-2.6-4.69-4.21-4.66-8.3-2.03-13.77,2.62-5.44,7.03-10,11.94-13.42,9.25-6.43,20.4-8.57,31.43-7.14-.88.84-1.4,2.01-.93,3.23.38.98,1.5,1.79,2.55,1.84-.61.46-1.05,1.12-1.27,1.85-.13,0-.25.04-.36.17-6.22,7.96-13.87,13.89-22.83,18.42-.06-.08-.11-.16-.18-.23-.16-.17-.34-.22-.52-.2-1.03-1.07-2.83-.94-3.93-.04-1.37,1.13-1.28,3.1-.11,4.34,1.18,1.24,3.15,1.4,4.35.1.87-.94,1.2-2.51.58-3.66,8.97-3.74,16.77-9.86,22.87-17.41.05.36.15.71.33,1.04.64,1.2,2.23,1.94,3.66,1.82-.28,1.06.07,2.34.93,3.09.37.33.82.51,1.29.61-1.44,11.49-8.57,22.47-16.62,30.55ZM2339.48,583.24c-.63.77-1.65.67-2.3-.03-1.49-1.64.75-3.16,2.32-2.5,0,.1.02.2.08.31.4.74.46,1.54-.1,2.23ZM2407.48,592.19c1.95,8.23,4.16,32.42-11.48,29.39-6.08-1.18-8.99-5.55-15.59-3.79-6.13,1.64-11.95,3.45-16.57-2.66-3.96-5.23-4.01-11.9-3.99-18.21,0-.32-.17-.52-.39-.63,1.42-1.9,2.75-3.83,3.99-5.65,4.39-6.4,7.55-13.15,8.39-20.85.11-.03.22-.04.32-.07.5-.17,1.06-.46,1.53-.84.16,1.51,1.31,2.97,2.78,3.34.34.09.69.1,1.03.08-.15,7.93-1.34,15.72-3.52,23.34-.24-.15-.47-.13-.66-.03-1.74-.67-3.69.22-4.49,1.9-.88,1.85.17,3.84,1.96,4.6,1.78.77,3.85.13,4.63-1.7.67-1.56.24-3.4-1.04-4.47,2.48-7.78,3.77-15.61,3.94-23.77,1-.28,1.91-.96,2.44-1.85,1.22,1.33,3.07,2,4.91,1.48,1.34-.37,2.5-1.37,3.15-2.61.67,7.82,3.13,15.8,7.19,22.52-1.15.48-2,1.83-2.08,3.05-.13,1.9,1.44,3.32,3.27,3.39,1.75.07,3.37-1.14,3.44-2.97.07-1.68-1.1-3.44-2.89-3.43-.01,0-.02.01-.04.01-.07-.08-.15-.15-.28-.18-.11-.03-.21-.02-.32-.03,0,0,0-.02,0-.03-3.71-7.7-6.21-15.02-7.76-23.43-.01-.06-.05-.1-.09-.13.03-.12.06-.25.08-.37,1.57,1.85,4.77,2.34,6.5.45.08-.09.14-.2.21-.31,4.99,7.63,9.28,15.48,11.4,24.43ZM2371.5,600.74c-1.05-.4-1.78-1.46-1.35-2.57.42-1.1,1.68-1.75,2.82-1.57.05.13.13.26.28.35,1.97,1.29.67,4.72-1.75,3.8ZM2397.47,592.79c.06-.02.09-.08.14-.11,1.65.85,2.34,3.87-.18,3.94-.96.03-1.93-.58-1.93-1.62,0-1.2.97-1.83,1.96-2.21ZM2445.87,573.86c-.3.01-.6.21-.62.58-.01.21-.03.42-.04.64-.8,1.48-1.3,2.6-1.36,4.55-.02.62.44,1.17.53,1.75.78,4.95,1.32,9.08-2.75,12.84-11.05,10.19-25.38-2.32-33.79-9.41-.24-.2-.53-.09-.65.11-2.4-6.56-5.96-12.7-10.64-17.82-.03-.03-.07-.03-.11-.05.62-1.57.37-3.76-1.01-4.67.78.14,1.64.17,2.4-.01,7.91,4.03,14.56,9.18,20.68,15.61-.94.48-1.29,1.9-.88,2.93.63,1.57,2.61,2.48,4.15,1.63,1.39-.77,2.07-2.67,1.18-4.06-.7-1.1-2.18-1.57-3.39-1.14-.02-.04-.03-.08-.06-.11-5.59-6.56-12.89-11.74-20.77-15.21.52-.32.93-.82,1.12-1.56.24-.96-.47-2.11-1.36-2.49.28-.27.53-.56.77-.87,6.29,2.22,12.98,3.27,19.65,2.94-.31,1.43.38,3,1.77,3.67,1.79.86,4.09.01,4.72-1.92.57-1.72-.36-3.82-2.12-4.39-1.46-.48-3.48.21-4.07,1.68-6.74.13-13.17-.61-19.65-2.41.93-1.45,1.3-3.23.79-4.98-.74-2.51-3.22-4.15-5.76-4.24,11.25-5.8,22.41-9.61,34.86-12.02.27,1.29,1.54,2.4,2.81,2.54,1.72.18,3-1.31,3.05-2.94.05-1.66-1.22-3.11-2.94-2.95-1.24.11-2.35.95-2.65,2.08-.11.03-.19.1-.24.23-.02,0-.03,0-.05,0-12.32,1.56-24.52,5.97-35.03,12.6.49-1.09.4-2.45-.36-3.39-.89-1.11-2.46-1.41-3.7-.88.01-.06,0-.13.01-.19,7.52-4.43,14.21-10.68,18.79-18.12,1.34,1.05,3.41.3,3.94-1.28.64-1.91-.89-3.53-2.74-3.79-1.55-.21-3.59.59-3.69,2.39-.06,1.06.73,2.28,1.75,2.49-5.08,7.07-10.83,12.9-18.03,17.75-.07-1.49-1.02-2.98-2.35-3.64.02-.03.04-.05.06-.09,3.07-7.6,8.25-17.12,9.8-26.37,5.37-5.53,11.63-11.67,19.79-11.77,4.47-.06,9.54,1.82,11.9,5.87,1.28,2.21,1.29,4.9,3.16,6.77.94.94,2.02,1.38,3.24,1.84,1.21.46,3.31.37,4.34,1.03,2.6,1.67,4.99,8.13,4.65,11.08-1.01,8.91-8.97,16.38-17.49,17.79-.03,0-.04.03-.06.04-9.06-.46-18.54,2.6-26.82,5.6-.88.32-.52,1.71.39,1.42,10.21-3.31,21.05-7.09,31.86-4.33,12.85,3.28,19.35,14.85,12.99,26.68ZM2418.98,578.78c.16.1.37.13.6-.02,1.53-1.02,3.34.75,2.14,2.26-.62.78-1.65.81-2.4.19-.6-.5-1.07-1.91-.33-2.43ZM2420.12,559.91c.67-.75,1.3-1.45,2.44-1.3,1.14.15,1.86,1.36,1.68,2.46-.21,1.28-1.62,1.94-2.78,1.54-1.16-.4-1.57-1.6-1.33-2.7ZM2430.5,535.27s.02-.03.02-.05c.2-2.13,3.65-2.73,3.57-.2-.03.93-.59,1.81-1.59,1.83-1.05.02-1.74-.69-2.01-1.58ZM2408.07,521.68c.24-.86,1.35-1.1,2.12-.98.9.14,1.86.76,1.74,1.78-.16,1.26-1.4,1.22-2.3.88-.11-.04-.21-.03-.31,0-.03,0-.05-.03-.08-.03-.76-.08-1.39-.83-1.17-1.64Z"/>
            <path class="cls-5" d="M2365.37,544.71c-6.62-3.31-13.07-6.9-19.34-10.84.84-1.13.88-2.82.14-4.04-1.08-1.79-3.44-1.84-4.91-.51-1.46,1.32-1.69,3.71.02,4.93.91.65,2.34.84,3.42.38.15.08.33.1.5,0,.26-.16.48-.36.67-.58,6.06,4.28,12.39,8.13,19.02,11.46.54.27,1.02-.54.48-.81ZM2342.29,533.37c-1.18-.76-1.11-2.22-.07-3.09,2.28-1.91,4.22,1.38,2.64,3.19-.81.4-1.75.42-2.57-.11Z"/>
          </g>
          <path class="cls-5" d="M2487.58,717.8c-2.74,1.53-5.5,2.99-8.28,4.41-1.7-6.51-6.72-10.89-12.79-13.94-9.63-4.84-19.28-8.23-28.09-14.68-.5-.37-.95.32-.76.76,6.84,15.75,20.09,29.6,37.78,29.83-.28.14-.56.27-.84.4-16.55-.93-32.49-4.56-47.86-10.54,2,.29,4.54.77,4.84.78,6.98.25,13.55-1.68,20.31.97.5.2.71-.6.22-.8-9.38-3.86-19.93.03-29.76-2.92-.6-.18-1.09.64-.62,1.07,12.1,11.06,28.06,18.1,44.03,15.57-8.94,3.96-18.1,7.41-27.5,10.26-3.34-5.86-8.79-9.01-15.15-10.88-11.15-3.28-21.78-4.35-32.32-9.78-.71-.36-1.36.36-1.04,1.04,7.84,16.77,26.09,22.06,43.31,21.17-15.13,4.29-31.38,7.95-47.25,7.57,3.79-1.42,7.01-4.34,9.91-7.05.28-.26.19-.72-.12-.91-6.77-4.3-15.39-6.97-22.24-1.77,5.29-8.32.14-18.2-6.49-24.23-.31-.28-.77-.23-.99.13-4.33,6.89-9.24,16.17-3.78,23.72-.06.12-.11.25-.15.38-1.65-3.49-4.91-5.95-8.82-6.59-6.22-1.02-10.72,4.39-16.8,4.15-.41-.02-.57.42-.42.74,3.38,7.59,10.81,12.93,18.53,12.22-8.21,2.37-9.72,12.78-10,20.31-.02.43.4.67.78.59,5.66-1.11,11.69-2.31,16.16-6.24,2.7-2.37,4.03-5.12,4.54-8.19,2.07,6.88,10.48,10.94,17.81,10.8.35,0,.68-.36.55-.73-1.41-4.07-.53-8.66-2.72-12.49-1.14-1.99-2.83-3.55-4.67-4.91,0,0,.01,0,.02,0,1.62.61,3.29.98,5.07.9,5.19.7,10.51.78,15.85.44-8.56,9.64-16.03,20.37-21.04,32.29-1.6-2.36-3.38-4.54-4.65-6.34-.24-.34-.74-.39-.97,0-2.16,3.63-6.28,5.51-8.08,9.4-1.46,3.16-1.33,6.6.14,9.69-1.21-1.65-2.77-3.06-4.65-4.1-6.6-3.65-14.74-.72-21.67-.16-.46.04-.89.55-.57,1,3.49,5,4.87,10.93,10,14.69,2.69,1.97,5.71,3.09,8.89,3.5-9.6,3.41-12.15,15.08-12.3,25.04,0,.41.45.84.87.66,6.36-2.61,13.03-2.03,18.22-7.16,2.47-2.44,4.14-5.39,4.98-8.61.38,2.96,1.74,5.77,3.95,7.95,4.62,4.58,11.33,4.28,17.34,3.79.3-.02.62-.25.59-.59-.68-8.05-4.97-15.11-11.51-19.4,3.32.91,6.67,1.06,10-.64,4.91-2.5,7.74-7.47,10.24-12.13.17-.31.07-.69-.23-.88-5.79-3.52-12.64-4-18.42-1.55,3.17-4.12,1.19-9.02-1.66-13.41.07-.03.13-.08.17-.16,2.15-3.98,4.38-7.86,6.72-11.65-2.59,6.42-3.14,13.21-3.27,20.52,0,.45.6.72.91.38,7.25-7.84,10.13-18.24,7.93-28.69-.04-.17-.13-.26-.25-.32,3.15-4.5,6.54-8.85,10.29-13,.09-.1.14-.2.18-.3,11.4-.97,22.85-3.76,33.38-6.59,10.05-2.7,19.92-6.1,29.52-10.13-7.77,14.15-18.41,25.75-31.36,35.08,3.32-4.1,4.88-10.33,6.51-15.4.14-.43-.32-.91-.75-.75-5.33,1.9-11.82,1.22-16.58,4.6-2.76,1.96-4.43,5-4.61,8.26-.11-2.74-1.35-5.36-3.6-7.14-4.48-3.57-10.64-.92-15.35-3.83-.49-.31-.98.2-.89.69,1.03,6.18,2.68,14.07,8.21,17.35-2.24-.08-4.5.53-6.43,1.88-4.44,3.12-5.04,9.03-8.23,13.11-.19.24-.24.69.11.85,6.61,2.94,13.87,1.5,18.45-3.35-.35,1.52-.42,3.12-.13,4.76.99,5.49,6.06,7.68,9.15,11.81.25.34.77.51,1.11.14,2.95-3.28,6.09-6.81,6.6-11.37.47-4.23-1.57-6.06-3.76-8.54,2.03,1.68,4.37,2.93,6.99,3.6,4.56,1.17,8.99-.13,13.53-.67.65-.08,1.11-1.02.37-1.38-4.15-2.04-5.86-6.84-9.94-9.1-1.57-.86-3.25-1.37-4.96-1.59,7.66-4.32,14.57-9.7,20.65-15.9-3.77,6.81-5.21,14.88-4.63,22.61.03.45.6.76.95.39,4.45-4.7,8.91-9.4,13.36-14.1.31,4.89,1.56,9.79,4.25,14.71.3.55,1.11.39,1.28-.17,4.6-14.44,15.13-34.74,3.28-48.14,4.3-1.89,8.54-3.9,12.72-6.03.17,0,.36-.08.47-.24,3.06-1.57,6.09-3.19,9.07-4.89,1.26-.72.13-2.66-1.14-1.95ZM2361.39,726.23c.39-1.64,3.09-9.79,5.22-10.07,2.42-.32,5.75,6.67,6.48,8.57,1.9,4.94,1.4,9.69-1.21,14.3-.61-.69-1.72-1.03-2.63-.76.28-.75.06-1.67-.86-1.9-.95-.23-2.04.41-2.32,1.32-.89-.94-2.44-1.26-3.49-.37-1.76-3.54-2.14-7.17-1.2-11.1ZM2344.4,745.54c-2-1.25-8.14-6.35-6.49-8.6.18-.25,3.8-.98,4.3-1.18,1.83-.74,3.51-1.83,5.39-2.43,6.11-1.96,11.53,1.14,14.28,6.62.01.02.04.02.05.04.03.11.04.22.08.32-1.24.27-2.33,1.49-2.05,2.85.2.99,1.16,1.79,2.18,2.03-.01.03-.02.06-.03.09-.13-.12-.32-.16-.52-.03-5.3,3.44-11.75,3.7-17.19.3ZM2360.99,762.34c-3.34,3.04-7.62,4.48-11.96,5.44-2.24.5-3.15,1.07-3.23-1.44-.07-2.23.4-4.71,1-6.86,1.42-5.06,4.56-9.04,9.72-10.48.23-.06.24-.39.07-.49,1.78-.43,3.55-1.17,5.28-2.33-.06,1.03.48,2.13,1.59,2.58.52.21,1.03.28,1.52.24.3,5.03-.02,9.71-3.99,13.33ZM2364.51,747.94c-.77-.07-1.5-.48-1.73-1.26-.14-.47-.06-1,.18-1.44.5-.05.98-.27,1.32-.73.22-.3-.15-.77-.49-.64-.95.35-2.37.36-2.71-.86-.26-.94.52-1.67,1.39-1.92.4.49.96.82,1.66.78.55-.03.64-.77.13-.95-.96-.33-1.81-1.66-1.04-2.59.81-.97,2.64-.19,2.79.96.06.47.76.51.76,0,0-.2-.05-.38-.09-.56.15-.06.27-.16.27-.39,0-.53.39-.98.93-1.03.8-.08.89.9.46,1.39-.07.08-.07.18-.03.27-.04.06-.09.1-.13.17-.19.37.22.92.63.63.67-.48,1.62-.78,2.26-.03.75.87-.16,2.21-1.17,2.25-.24.01-.35.2-.33.38-.23.27-.09.78.35.79.71.02,1.25.3,1.62.92.1.16.16.34.21.53-.28.11-.42.55-.08.75.02.01.04.03.07.04-.06.18-.14.35-.29.5-.88.83-2.59.22-2.88-.89-.01-.05-.05-.07-.08-.11,0-.1,0-.21,0-.31-.05-.62-.86-.59-.94,0-.21,1.63-1.03,3.53-3.01,3.35ZM2381.21,755.01c.75,2.07.79,4.22,1.02,6.39.1.92.87,2.99.31,3.63-.63.71-4.76-.53-5.73-.83-2.13-.66-4.27-1.72-5.94-3.23-3.55-3.2-5-7.72-4.2-12.38.01-.08-.02-.14-.04-.21.74-.5,1.32-1.27,1.62-2.15.94,1.21,3.02,1.46,4.08.22.14-.16.24-.33.32-.52.02.01.04.03.07.04-.13.24-.11.57.18.76,3.31,2.13,6.9,4.41,8.31,8.27ZM2381.46,747.87c-.75-.06-1.51-.11-2.26-.19-2.21-.41-4.3-1.42-6.37-2.61.03-1.1-.63-2.26-1.61-2.72.89-.56,1.42-1.68,1.06-2.7.08,0,.16-.04.23-.09.14.13.37.18.56.03,3.56-2.9,7.96-3.77,12.41-2.81,2.13.46,8.47,1.97,8.32,4.46-.05.81-4.46,3.67-4.58,3.75-1.58,1.06-3.25,2-5.1,2.51-.92.25-1.8.36-2.66.37ZM2361.17,827.02c-2.24,2.2-4.85,3.56-7.84,4.37-1.85.5-5.7,1.8-7.49,1.53-2.25-.34-1.46-2.34-1.25-4.63.33-3.52.93-7.21,2.71-10.33,2.47-4.33,6.44-6.98,10.99-8.46.34,0,.69,0,1.03-.02.3-.02.48-.21.54-.44.18-.05.36-.1.55-.14.41.22.88.36,1.36.38-.37.9-.2,2.03.65,2.68.85.67,2.49.43,3.26-.39.02.12.04.24.09.33.14.24.45.45.75.62-.04.08-.07.16-.06.27.32,5.32-1.45,10.46-5.29,14.23ZM2383.15,817.99c1.34,1.85,6.35,9.78,3.74,11.95-.83.69-4.57.2-5.64.14-2.95-.17-5.85-.87-8.24-2.66-4.23-3.15-5.82-8.45-4.92-13.52.06-.32-.28-.5-.5-.37,0-.18,0-.35,0-.53.79.28,1.68.37,2.45,0,1.05-.51,1.81-2.38.99-3.29.34.03.69-.03,1.02-.17,4.45,1.72,8.3,4.55,11.11,8.44ZM2381.85,795.61c3.17-.83,12.64-1.34,13.68,2.71.76,2.95-5.33,8.8-7.56,10.25-4.71,3.07-9.47,1.82-14.47.3-.05-.01-.08,0-.12.01-.1-.04-.19-.09-.29-.13.23-.29.39-.64.45-1.01.21-1.39-1.07-2.83-2.48-3.13.16-.49.26-1.01.26-1.51.09-.02.17-.05.24-.14,2.66-3.41,6.01-6.23,10.28-7.35ZM2377.73,796.08c-.09.11-.1.24-.08.35-2.47,1.28-4.71,3.11-6.52,5.53-.19-.47-.53-.88-1.07-1.2-1.31-.76-3.36.41-2.79,2.01.19.54.92.31.84-.23-.09-.62.43-1.12,1.04-1.09.6.03,1.06.54,1.26,1.07.25.67.15,1.36-.04,2.03-.19.02-.38.04-.56.11-.36.14-.47.77,0,.85.08.01.16.03.23.04-.03.28.42.46.57.17.01-.02.02-.05.03-.07.89.17,1.76.45,2.05,1.47.13.45-.04.94-.35,1.31-.11-.04-.22-.09-.33-.13-.5-.18-.78.33-.66.73-.3.05-.62,0-.89-.22-.33-.25-.8.19-.47.47.03.03.07.04.1.06-.15.11-.21.35-.06.52.61.68.54,1.76-.3,2.26-1.01.61-2.3-.07-3.18-.69-.04-.51-.1-1.02-.17-1.53-.05-.39-.61-.42-.63,0,0,.02,0,.06,0,.08-.13,0-.26.05-.34.16-.27.4-.44.8-.89,1.03-.45.23-1.04.28-1.47-.04-.62-.47-.59-1.41-.18-2.04.37-.13.72-.31,1.02-.59.39-.38-.1-.93-.55-.72-1.14.53-2.91.74-3.23-.9-.12-.61.14-1.21.74-1.44.39-.15,1.1-.17,1.43.14.18.17.52-.06.36-.28-.27-.35-.4-.62-.87-.76-.41-.13-.85-.12-1.26,0-.97.3-1.54,1.19-1.49,2.18.04.68.32,1.24.74,1.66-.03,0-.06,0-.09,0-.09-.06-.19-.11-.34-.1-5.52.27-10.77-1.52-14.65-5.53-1.33-1.38-6.97-9.62-5.69-11.46.17-.25,3.64-.55,4.34-.65,3.97-.59,7.98-1.52,11.98-.44,5.18,1.41,8.41,5.59,9.84,10.51-.64-.19-1.33-.18-1.91.1-1.58.76-2.06,3.22-.62,4.36.19.15.52-.04.37-.28-.61-.98-.55-2.55.56-3.19,1.28-.73,2.5.43,2.84,1.58.14.46.81.36.83-.11.03-.9-.52-1.64-1.26-2.1-.33-2.38-1.22-4.59-2.56-6.49.17.07.42-.08.35-.29-1.4-4.65-.65-9,2.84-12.51,1.76-1.78,3.67-3.2,5.1-5.23,3.87,5.28,11.09,13.19,6.05,19.5ZM2383.43,776.33c.92-4.23,2.8-7.95,4.83-11.74.06-.11.06-.22.03-.31.13-.19.26-.37.38-.55-.68,8.14-3.13,15.86-6.73,23.16-.26-3.27.88-7.76,1.49-10.55ZM2389.53,764.86c-.55,1.21.02,7.48-.34,9.73-.54,3.3-1.62,6.53-3.18,9.47-.53.99-1.13,1.96-1.77,2.89-3.05,4.42-1.82,2.94-2.09,1.33,2.63-5.02,4.68-10.27,6-15.79.55-2.29.43-5.51,1.39-7.63ZM2399.68,723.72c3.67,1.3,7.43,2.28,11.25,3.05,8.91,1.8,18.63,2.84,24.57,10.04-14.29-3.16-27.93-6.96-40.17-15.05,2.01.89,4.2,1.91,4.35,1.96ZM2411.77,736.55c-4.4-1.54-8.6-3.85-12.18-6.86-.85-.71-8.44-8.8-7.62-9.27.04-.02.25.04.55.16,12.86,10.09,27.85,14.06,43.56,17.51.13.03.25,0,.35-.04.26.37.52.73.76,1.13-8.57.47-17.22.25-25.42-2.62ZM2397.6,754.95c2.56,1.22,5.28,1.05,8.18,1.26,5.9.43,10.3,4.65,9.36,10.83,0,.02.01.03,0,.04-.04,0-.08-.01-.12,0-1.19.11-2.19,1.33-2.24,2.52-.99-.76-2.59-.66-3.32.48-.37.58-.38,1.3-.17,1.93-8.3-1.51-10.68-9.74-11.71-17.06ZM2417.02,770.78c.14.16.38.23.6.12.73-.38,1.78-.78,2.47-.08.1.1.15.22.19.36,0,.1,0,.19.04.28,0,.65-.52,1.37-1.18,1.05-.26-.13-.48.08-.49.3-.12,0-.24-.01-.37.01-.48.1-.35.81.11.83.93.02,1.97,1.11,1.35,2.05-.39.59-1.23.68-1.85.39-.14-.24-.32-.46-.59-.64-.08-.06-.17-.02-.23.04-.18,0-.34.18-.24.39.08.16.18.31.3.44.11,1.11-.14,2.33-1.25,2.84-1.49.69-2.93-.89-2.98-2.34.01-.03.03-.04.04-.07.04-.11.02-.22-.02-.31,0-.03,0-.06,0-.09.06-.29-.38-.53-.52-.22,0,.01,0,.03-.01.04-.06,0-.11,0-.17.04-.48.3-.78.58-1.39.55-.51-.02-1.06-.23-1.34-.68-.73-1.2.93-2.5,2.06-2.29.18.03.3-.09.33-.23.3-.21.3-.65-.1-.79-.49-.17-.91-.22-1.25-.68-.31-.42-.43-1.01-.15-1.47.53-.87,2.04-.79,2.59,0,.02.03.06.04.09.06.05.08.07.16.14.23.33.39.96-.03.83-.48-.13-.46-.24-.85-.05-1.32.19-.46.6-.88,1.11-.94,1.06-.13,1.88,1.33,1.53,2.24-.1.25.17.42.39.37ZM2401.17,787.22c-2.42.71-5.8,1.05-8.18.01-2.48-1.08-1.54-1.04-.58-2.66,1.7-2.87,2.44-6.34,4.7-8.87,3.07-3.43,7.73-3.97,11.9-2.62.18.06.31-.1.32-.26.13,0,.23-.09.28-.2.11.17.25.34.41.49-1.32.42-2.34,1.96-1.68,3.38.41.87,1.32,1.39,2.25,1.47.08,0,.16-.02.23-.02-.03.04-.06.08-.08.13-1.78,4.32-5.01,7.79-9.59,9.14ZM2423.82,788.48c-.31,4.22-3.1,7.5-5.83,10.52-1.82-2.14-4.11-3.74-5.95-5.87-3.53-4.1-3.36-9.87.14-13.92.39-.45.03-1.04-.4-1.11-.02-.11-.07-.21-.16-.27.21-.06.42-.13.6-.24.2,1.7,1.88,3.19,3.72,2.66,1.27-.37,2.34-1.94,2.22-3.3.19.05.38.07.58.07-.22.26-.31.66-.03.99.04.05.09.1.14.16-.02.06-.02.14.02.22,1.83,3.62,5.3,5.43,4.96,10.09ZM2435.48,777.59c1.44,1.71,2.59,3.43,4.24,4.76-7.69.87-14.1,1.39-20-5.33-.04-.05-.09-.07-.14-.11.41-.15.77-.4,1.01-.8.6-.98.17-2.21-.67-2.86.48-.14.9-.53,1.15-1,.05.14.18.26.37.23,5.46-.85,10.46.86,14.04,5.11ZM2421.15,770.64c-.59-1.3-2.45-1.51-3.64-.86.09-.5.02-.99-.3-1.52-.32-.53-.83-.93-1.42-1.09.16-.62.24-1.25.27-1.88.02.49.07.98.16,1.47.07.39.64.27.66-.09.32-5.93,3.33-9.99,9.12-11.53,3.48-.93,7.06-1.09,10.5-2.17-2.49,8-4.98,18.62-15.35,17.67ZM2444.37,771.88c.49-7.35,3.17-13.72,6.89-19.83,3.84-4.33,7.28-9.02,10.34-13.97-.8,7.19-6.51,14.66-9.54,21.01-2.69,5.64-5.17,11.37-7.42,17.2-.78-.09-.33-3.48-.27-4.41ZM2457.57,763.07c-3.13,3.28-6.26,6.56-9.38,9.84-.64.67-1.86,2.39-2.83,3.08,3.29-7.5,6.68-14.95,10.41-22.24,1.42-2.77,3.12-5.49,4.47-8.31-1.66,5.89-2.81,11.76-2.66,17.63ZM2462.32,776.34c-1.7.24-2.41-5.07-2.81-6.7-3.07-12.43,2.35-24.85,5.57-36.71,1.24,8.65,1.02,17.08-.52,25.76-1.06,5.94-2.24,11.64-2.24,17.66ZM2467.63,734.24c4.66,3.94,3.23,14.92,2.13,19.87-1.11,5.01-2.94,9.86-4.57,14.71-.21.62-1.15,4.37-1.9,6.29.32-9.94,3.57-19.57,3.79-29.57.07-3.19-.07-6.38-.39-9.55-.2-1.98-1.4-3.71.94-1.74ZM2432.06,719.53c-1.01-.65-5.9-4.69-7.35-5.51,15.21,6.6,31.28,10.4,47.81,11.54-1.04.49-2.07,1-3.11,1.48-12.93,2.65-26-.25-37.36-7.52ZM2477.11,723.33c-8.93-.13-17.35-3.27-24.24-9.2-3.14-2.71-5.86-5.87-8.24-9.26-.7-1-4.86-6.99-4.97-8.61,10.64,11.68,23.77,20.51,38.32,26.63-.29.15-.58.3-.87.45ZM2441.88,697.58c4.4,2.59,14.04,7.31,15.48,7.92,8.48,3.59,18.09,7.19,20.87,16.57-13.67-5.91-25.66-14.23-36.35-24.49Z"/>
          <g>
            <path class="cls-5" d="M91.72,1036.27c4.63-3.04,9.39-5.72,14.24-8.17,10.14-.76,20.13-.64,30.28.35.1.05.2.06.32.03.13.01.27.02.4.04.02,0,.04,0,.06,0,.02.03.04.06.06.09-.13-.01-.26.03-.37.1-.08.02-.17.07-.23.15-3.7,5.49-4.79,12.97-.95,18.71,2,2.98,5.12,4.91,7.96,6.98,4.31,3.13,8.33,6.53,12.13,10.24,0,0,0,0,0,0,.01.15.12.21.24.22.14.14.29.27.44.42.21.21.67.16.79-.14,2.28-5.96,6.24-15.14,1.25-20.67,8.25,1.01,16.71.13,24.8,2.71.55.18,1.1-.6.73-1.05-6.02-7.44-10.47-19.83-20.25-23-9.06-2.93-19.49-.21-27.45,4.42-.1.06-.15.13-.18.21-9.21-1.24-18.51-1.55-27.77-.95,16.96-8.25,34.99-13.62,52.92-19.8,8.11.02,15.89,1.13,23.73,3.28-.01.06-.02.11,0,.18,1.36,7.3,6.94,12.36,13.81,14.77,4.36,1.53,9.02,1.77,13.6,1.61,7.07-.25,15.73-3.3,22.56-.67.73.28,1.38-.54.8-1.14-2.91-3.04-5.98-6.9-9.31-10.5,11.06-4.7,20.6-11.62,28.48-20.72.33-.38.06-1.05-.47-1-22.69,2.07-53.5-5.29-69.05,16.5-.12.16-.08.34.01.47-6.88-2.34-14.07-3.58-21.32-3.77,2.62-.92,5.24-1.85,7.85-2.82,22.21-8.27,44.06-19.73,57.77-39.69,7.18,4.8,15.84,6.65,24.43,5.7,4.22-.47,8.32-1.6,12.16-3.41,6.73-3.17,11.4-8.71,19.67-7.29.49.08.92-.46.63-.9-5.46-8.31-14.41-13.13-24.35-12.61,8.09-11.56,10.82-27.84,12.93-41.38.07-.46-.27-.99-.79-.93-13.91,1.77-24.08,9.21-31.36,19.32-3.82-8.71-9.84-15.65-17.88-20.8-.26-.17-.69.03-.72.34-1.38,10.79-10.5,19.31-8.5,30.67,1.92,10.92,10.29,19.36,10.93,30.7.02.29.35.32.49.14-.03.3.2.62.54.46.08-.04.15-.08.23-.11-.01.08-.02.15-.03.23-.04.3.12.51.34.61-9.89,12.71-22.17,21.35-35.65,28,5.09-4.46,8.85-10.03,11.05-16.46.09-.07.17-.17.17-.3,0-.11.01-.22.02-.33,7.12-4.9,11.82-12.29,12.33-21.08.64-11-6.42-16.45-9.66-26.04-.14-.42-.68-.42-.9-.08-3.28,5.17-7.22,11.12-9.47,17.32-6.11-4.31-13-4.91-20.31-5.75-.41-.05-.67.41-.37.72,6.46,6.73,5.52,16.67,10.65,24.13,3.79,5.51,9.61,8.88,16.1,9.97.3.46.6.91.89,1.37.05.08.11.11.18.14-2.71,6.5-6.75,12-12.15,16.55-.19.16-.14.4,0,.56-32.31,15.49-71.19,20.07-100.52,41.59-.96.7,0,2.23,1.01,1.57ZM154,1061.71c-1.02-.96-2.06-1.91-3.12-2.82-1.59-1.38-3.23-2.7-4.91-3.96-3.25-2.44-7.14-4.56-9.48-7.99-3.64-5.34-2.41-11.66.23-17.06,3.27,5.13,6.18,9.2,11.07,11.78,4.2,6.6,6.67,13.8,7.64,21.51-.46.02-.94-.45-1.43-1.45ZM156.59,1062c-.19.4-.39.69-.59.89-.63-7.32-2.96-14.22-6.74-20.52.93.4,1.92.76,3,1.06,1.72.48,3.45.81,5.19,1.06-.11.18-.13.42.05.61,2.66,2.77,3.09,14.21-.91,16.9ZM162.19,1024.19c6.62,1.81,9.41,6.89,12.76,12.11.6.94,5.52,7.37,5.99,8.58-12.1-9.81-27.57-15.23-42.89-17.11,7.29-3.53,16.2-5.75,24.14-3.57ZM180.25,1045.1c-3.52-.07-19.14-1.57-20.32-1.67-4.19-.38-8.47-1.08-12.23-3.08-4.82-2.55-7.35-7.09-10.19-11.5-.03-.04-.07-.07-.1-.1,15.92,1.92,29.52,7.9,42.84,16.35ZM209.78,1025.78c-10.08-.05-20.5-4.12-23.51-14.43,14.98,3.06,29.43,7.32,43.74,12.59-6.67-.27-13.54,1.88-20.23,1.85ZM249.42,998.1c-6.87,6.83-14.94,11.99-23.84,15.72,0,0-.01.01-.02.01-2.02-2.14-4.14-4.13-6.38-5.79,10.95-4.06,21.88-8.37,32.47-13.29.49.34-.11,1.23-2.23,3.34ZM233.45,994.81c4.37.05,8.75.14,13.12-.04,1.79-.07,3.2-.22,4.11-.2-10.83,4.29-21.6,8.67-32.53,12.69-.02,0-.03.02-.04.03-1.47-.99-2.99-1.82-4.56-2.42-8.36-3.15-18.93.76-26.8,4.09,11.59-13.55,30.03-14.34,46.7-14.16ZM185.8,1010.02c.07.04.17.06.28.02,11.49-3.79,23.69-8.39,33.8.88,3.06,2.81,5.85,5.97,8.73,8.97.27.29,3.49,3.25,4.21,4.23-.39-.04-.89-.08-1.52-.14-.04,0-.07,0-.11,0-14.38-6.18-29.52-10.62-44.9-13.46-.1-.02-.18.02-.25.06,0,0,0-.01,0-.02.08-.14.05-.36-.15-.43-.05-.02-.11-.03-.16-.05.03-.01.05-.02.08-.04ZM278.86,957.46c-2.49.62-4.5,2-6.63,3.38-13.25,8.61-27.68,9.48-41.74,2.55,6.54-1.72,13.31-3.89,19.28-7.27.06.03.12.05.21.04,11.48-1.39,22.78-1.11,34.18.72-1.02.75-4.62.4-5.3.58ZM274.31,948.38c1.62.73,10.59,6.24,10.09,8.14-11.01-2.15-22.04-2.54-33.17-1.27,3.93-2.41,7.46-5.39,10.28-9.18.01-.02.02-.04.04-.05,4.46-.12,8.67.52,12.77,2.36ZM273.12,906.11c-.31,1.79-.64,3.58-1.01,5.36-.72,3.56-1.54,7.1-2.47,10.62-1.71,6.48-3.53,13.13-6.81,19.01-7.05,12.65-19.95,16.86-32.69,21.7-.01,0-.01.01-.02.02-.02-.1-.1-.18-.19-.22,21.8-11.56,31.12-37.36,42.55-57.9.31.26.53.72.63,1.42ZM243.06,923.53c.18-.05.31-.19.29-.39,3.03-4.11,6.64-7.82,10.75-10.84,4.05-2.97,11.01-7.69,16.34-7.34.81-.49,1.43-.61,1.88-.37-14.22,19.49-20.28,45.28-42.88,57.25,1.86-12.71,5.08-25.47,12.23-36.31.45-.68.91-1.34,1.39-2ZM242.36,922.99c-2.96,4.27-5.42,8.98-7.45,13.93.51-11.62-2.52-22.8-8.81-32.59,4.99-1.22,14.37,14.6,16.26,18.67ZM228.19,962.48c-.22.11-.43.23-.66.33-.09.04-.15.11-.2.18.21-13.13-12.02-23.12-10.65-36.28.49-4.76,2.74-8.91,4.8-13.15,1.03-2.13,1.87-6.69,3.31-8.4.22-.26.45-.44.7-.58,6.36,10.41,9.2,21.96,8.41,34.19-.01.17.06.28.16.34-2.87,7.57-4.76,15.61-5.86,23.36ZM184.55,941.39c4.2.78,7.95,2.19,11.47,4.66-.63,1.85-1.11,3.72-1.37,5.59-4.5-5.01-10.79-8.56-17.08-10.7.8-.74,6.46.35,6.99.45ZM187.08,963.96c-3-4.41-3.75-9.5-5.33-14.47-.24-.77-2.88-5.88-3.89-7.75,6.42,2.66,11.47,6.46,16.67,11.03-.02.19-.05.38-.06.57-.47,7.53,3.35,14.24,7.33,20.39-5.94-1.45-11.21-4.59-14.73-9.76ZM203.31,972.96c-1.53.67-1.95-1.41-2.86-3-3.51-6.18-6.24-12.69-4.62-19.91,1.27-5.69,4.53-11.36,7.46-16.32.96-1.63,1.67-2.41,2.25-2.62,1.28,10.86-1.03,22.93-1.71,33.7-.08,1.26.09,7.88-.52,8.15ZM205.45,951.18c.41-6.55,1.48-13.45.82-20.03.91.49,1.62,2.54,2.93,4.59,8.5,13.25,7.3,28.48-5.21,38.59.49-7.71.97-15.43,1.46-23.14Z"/>
            <path class="cls-5" d="M119.45,964.9c4.2,6.94,3.49,15.51,8.23,22.25,3.66,5.2,9.02,8.6,15.13,10.04.24.19.47.37.72.56-.07.03-.13.06-.19.09-.1-.1-.29-.13-.35.03-2.74,7.14-8.55,11.86-14.32,16.54-.43.35.03,1.07.47.73,5.81-4.53,11.5-9.46,14.05-16.54.09.07.2.09.34.04.29-.12.58-.24.87-.36.14,0,.28-.06.38-.16,8.81-3.74,15.97-8.89,17.85-18.99,1.87-10.1-2.33-19.77-7.86-27.99,0-.02,0-.04,0-.07,0-.18-.12-.26-.25-.29-.2-.29-.39-.58-.59-.86-.25-.36-.82-.27-.92.17-1.65,7.28-9.21,11.22-13.6,16.79-.68.86-1.31,1.74-1.91,2.65-.04-.08-.1-.15-.19-.2-5.48-3.22-11.11-4.88-17.46-5.2-.4-.02-.58.48-.4.78ZM124.05,975.09c-.19-.86-2.77-7.68-2.87-9.04,5.38,2.48,9.73,6.24,12.68,11.47.03.06.08.11.12.14-.03.14-.08.27-.1.41-1.58,8.06,2.12,13.5,7.76,18.18-9.81-3.27-15.36-11-17.59-21.16ZM161.74,972.41c.59,12.84-6.81,19.74-17.29,24.89-.12-.09-.23-.18-.35-.26,0-.01.02-.02.02-.03,7.74-13.45,10.61-28.79,10.64-44.18,3.68,2.58,6.85,16.73,6.98,19.57ZM138.78,969.4c2.46-3.63,5.54-6.52,8.72-9.5.55-.52,5.72-7.45,5.96-7.48.17-.02.34,0,.5.04-.83,15.37-3.1,30.24-10.89,43.8-3.19-2.44-6.31-5.2-7.72-9.04-2.25-6.12-.04-12.71,3.42-17.83ZM136.83,970.23c.07.04.13.06.19.06-1.18,1.93-2.12,3.98-2.74,6.17-2.97-4.98-7.39-8.85-12.81-10.9,2.44-2.33,13.75,3.72,15.36,4.67Z"/>
          </g>
          <g>
            <path class="cls-5" d="M2451.52,1133.15c-4.15-2.22-8.23-4.5-12.25-6.87,6.21-8.34,9.68-18.28,9.57-28.75-.13-12.35-5.39-23.95-6.93-36.12-.07-.57-.93-.85-1.26-.33-5.33,8.45-9.97,19.63-11.61,30.88-7.27-11.64-16.34-21.84-26.83-30.69-.36-.3-.96-.04-.99.42-.02.21-.01.42-.03.64-.07.03-.13.12-.09.22.02.06.05.12.07.19-1.14,20.47,7.73,41.44,23.57,54.35-11.88-8.04-23.03-17.04-33.26-27.44-.74-.76-1.45-1.55-2.18-2.32.1-.21.12-.46-.05-.7-6.87-9.68-9.06-22.47-10.93-33.95,9.52-.37,20.19-3.14,21.92-11,.11-.52.16-1.05.16-1.58,7.92-.77,25.58-5.84,20.91-17.25-.99-2.41-2.38-4.17-2.66-6.85-.04-.38.68-4.3.42-5.54-.34-1.65-.44-2.19-1.83-3.31-3.74-3-9.55-2.3-13.75-.59.64-1.72.98-3.49.88-5.29-.64-12.28-14.87-5.89-20.33-13.05-4.46-5.84-9.68-7.87-14.62-7.27,5.75-4.21,10.29-9.32,13.92-15.6.26-.44,0-1.17-.61-1.04-10.62,2.25-20.79,6.01-30.16,11.52-7.28,4.28-16,9.79-16.33,19.09-.07.05-.14.1-.21.15.44-10.86,3.21-21.05,7.98-30.78.08,0,.16-.01.24-.04.03,0,.05-.02.08-.03.23.66,1.31.5,1.14-.22-.02-.08-.03-.16-.05-.24,8.46-3.44,15.89-8.91,21.72-15.98,7.28-8.83,9.84-20.59,17.79-28.83.41-.43-.09-1.2-.64-1.08-10.19,2.1-20.93,4.78-28.4,12.54-.71.74-1.36,1.51-1.98,2.3.62-6.92-.36-13.57-2.9-20.15-.16-.41-.72-.45-.98-.12-11.88,15.22-18.71,33.68-6.71,50.97-.08.23,0,.48.16.65-3.88,6.92-6.39,14.25-7.67,21.92,1.03-7.2,1.79-14.55.2-21.72-1.63-7.34-5.73-13.67-9.7-19.93-.3-.47-1.03-.19-1.09.31-1.97,15.63-2.47,33.97,9.67,45.88.1.1.23.07.32-.02-.19,1.83-.33,3.67-.38,5.54,0,.02,0,.03,0,.05-1.14,1.04-2.17,2.22-3.24,3.28-3.68,3.66-6.2,3.38-10.76,4.86-7.57,2.45-5.98,12-2.71,17.44,6.04,10.03,18.01,15.87,29.32,17.87,1.32,2.43,3.46,4.58,5.94,6.39,5.58,6.53,10.85,13.3,16.17,20.03-12.16-5.53-24.82-9.76-37.78-12.73-.02-.01-.03-.04-.06-.04-.03,0-.05-.01-.08-.02.06-.13.09-.27.04-.43-6.79-20.12-25.44-30.52-44.67-36.44-.04-.02-.08-.03-.12-.04-.19-.06-.38-.12-.57-.18-.44-.13-.89.26-.7.72,6.32,15.85,19.12,28.4,34.92,34.18-8.1-1.38-16.29-2.29-24.53-2.71-.03-.03-.05-.05-.08-.08-.06-.2-.23-.35-.44-.42-17.47-16.71-42.95-7.31-61.29,2.97-.07.01-.14.02-.2.04-.2.04-.32.16-.4.3-.13.07-.26.14-.38.21-.48.27-.63,1.1.01,1.31,11.27,3.7,23.24,6.83,35.2,7.96-7.89,5.3-12.45,13.3-16.89,21.59-.28.52.36.96.82.8,17.02-5.74,42.28-11.74,43.53-33.81.16-.02.31-.1.39-.24,12.66,1.01,25.06,3.13,37.21,6.23-16.56,2.1-30.54,12.48-42.94,23.02-.47.4-.26,1.15.35,1.24,12.06,1.84,24.36,3.35,35.87-1.33-7.09,5.99-13.45,13.08-19.25,19.7-.35.4.06,1.18.61,1.03,21.55-6.02,51.74-6.63,61.91-30.68.1-.23-.04-.45-.24-.54.35.1.63-.09.76-.36,7.17,9.04,14.46,17.98,22.73,26.11,9.11,8.95,19.04,17.3,29.62,24.67-10.5-3.19-20-8.95-30.65-11.73-9.26-2.42-16.87.44-26.04.04-.75-.03-1.21.91-.57,1.41,17.53,13.62,40.24,21.23,61.82,13.38,7.56,4.98,15.43,9.45,23.57,13.26.76.36,1.2-.81.48-1.19ZM2378.78,924.62c-3.48,5.75-5.67,12.16-9.39,17.78-3.69,5.57-8.51,10.42-13.97,14.26-.61.43-9.2,5.9-9.53,5.46-.07-.09,4.93-5.57,5.47-6.17,4.84-5.44,9.89-10.73,14.57-16.32,4.8-5.74,8.3-13.95,14.89-17.88-.87,1.2-1.85,2.57-2.04,2.87ZM2350.79,915.08c3.24,1.05,2.24,15.84,1.9,19.25-4.7,6.74-6.86,15-8.31,23.13-1.53-14.42,2.83-28.26,6.09-42.4.11,0,.22-.02.33.02ZM2341.16,928.57c.91-2.05,5.46-11.89,8.56-13.34-4.59,14.95-9.05,30.61-6,46.19-.04.23-.07.46-.11.68-5.87-10.3-7.37-22.43-2.45-33.53ZM2344.79,960.49c3.27-15.75,7.8-30.51,24.25-37.11,3.13-1.26,7.58-3.35,10.93-3.24.5.02,2.05-.73,2.23-.33,0,0-.09.14-.24.34-.1-.03-.21-.03-.33.03-7.71,3.81-11.17,12.51-16.49,18.85-6.45,7.7-13.63,14.76-20.19,22.36-.06-.3-.12-.61-.17-.91ZM2330.2,952.79c2.82,5.06,4.87,10.35,5.44,16.18.05.52-1.23,17.12-.91,17.34-.45-.31-1.35-5.34-1.39-5.5-.75-3.04-1.43-6.1-1.94-9.2-1.39-8.36-.92-16.96-5.13-24.51,1.09-.18,4.34,6.4,3.94,5.69ZM2335.23,990.13c-7.64-9.87-10.3-21-9.9-33.37.04-1.3-.23-6.45.35-8.69,3.28,6.18,3.34,12.85,4.17,19.7.86,7.13,2.7,14.06,4.55,20.99.14.52.89.58.99,0-.06.46-.11.93-.16,1.39,0,0,0,0,0,0ZM2240.13,1049.13c2.86-1.47,5.76-2.87,8.73-4.1,14.98-6.2,31.9-7.31,45.17,2.81-18.41,2.02-37.05-.83-55.35,2.06.43-.23.91-.48,1.45-.76ZM2265.88,1058.75c-8.63-1.11-17.19-2.89-25.53-5.37-2.81-.84-4.01-1.3-3.78-1.94,13.55-2.49,27.26-1.6,40.98-1.59,2.81,0,5.63-.03,8.44-.15,3.57-.15,9.6-1.95,6.47,3.99-4.42,8.37-19.02,6.03-26.58,5.06ZM2264.64,1077.49c-2.66.91-5.41,2.08-8.14,2.69-1.65.37-2.38.28-2.55-.13,8.38-6.63,16.98-12.76,26.35-17.95.58-.32.18-1.27-.4-.95-9.22,5.1-18,11.01-25.83,18.07.47-1.05,1.86-2.68,2.88-4.35,3.44-5.66,7.48-10.62,13.12-14.19,2.17.17,4.35.3,6.51.32,7.15.08,14.38-2.13,17.73-8.13-3.83,13.45-16.86,20.24-29.67,24.61ZM2298.91,1021.54c4.57,1.96,9.01,4.33,13.08,7.18,5.33,3.74,10.16,8.37,13.7,13.87.55.86,4.79,8.17,3.94,8.41-1.38.38-6.86-4.8-8.08-5.7-11.48-8.55-22.4-17.78-32.88-27.52,1.65-.56,8.74,3.12,10.23,3.76ZM2296.84,1032.85c-1.88-2.17-9.22-11.22-8.78-14.24,13.13,12.4,27.11,23.8,41.93,34.12-12.83-3.19-24.41-9.81-33.15-19.88ZM2403.12,1007.45c6.85-2.48,13.14-1.65,14.21,6.47.32,2.45.42,4.13,1.1,6.47,1.51,5.12,1.82,9.72-2.74,13.47-4.24,3.49-10.11,4.54-15.38,5.21-.4-3.14-2.55-6.13-5.16-7.73-.07-.04-.13-.07-.2-.11,3.78-.75,7.51-2.02,10.87-3.83.26,1.23,1.91,2.07,3.05,2.07,1.82,0,3.05-1.6,2.78-3.37-.28-1.84-1.98-3.3-3.86-2.8-1.52.4-2.82,1.98-2.61,3.59-3.85,1.58-7.69,2.81-11.78,3.58-2.28-.91-4.66-1.02-7.03-.65.33-.95.18-2.05-.58-2.78,0,0,0,0,0,0,.1-.02.2-.06.29-.15,4.85-5.14,13.76-11.86,17.04-19.43ZM2407.62,1024.46c1.33-.53,2.59.32,2.85,1.68.23,1.2-.51,2.26-1.78,2.16-1.15-.1-1.6-.81-2.02-1.76-.16-.37-.56-.3-.75-.03.24-.9.78-1.68,1.7-2.04ZM2371.65,981.98c5.34.31,8.15,2.93,11.2,7.04,1.26,1.7,1.85,3.16,3.85,4.14,1.7.83,3.69.76,5.52.82,6.36.23,12.24,3.58,10.1,11.03-2.29,7.99-11.55,15.24-17.07,21.24-.1.11-.13.23-.12.34-.69-.31-1.5-.29-2.19.02.57-1.63.02-3.58-1.53-4.5-.16-.1-.33-.17-.5-.23,3.15-3.72,5.34-7.87,6.74-12.52,1.49.41,3.1-.39,3.74-1.81.68-1.53-.22-3.17-1.71-3.77-1.48-.6-3.27-.05-3.83,1.53-.45,1.29.02,3,1.26,3.64.02.09.07.18.15.25-1.63,4.62-4.11,8.76-7.32,12.48-1.11-.08-2.24.36-3.01,1.16.16-1.59-.82-3.27-2.39-3.75-1.9-.59-3.86.68-4.33,2.53-.08.3.39.39.51.13.61-1.39,2.21-2.38,3.72-1.81,1.48.56,1.97,2.13,1.69,3.56-.04.22.15.34.34.33.11.15.32.22.46.02.91-1.27,2.68-1.94,4.11-1.09,1.43.85,1.79,2.67,1.06,4.1-.11.22.04.38.23.42.08.1.22.15.35.06,1.82-1.27,4.01.83,2.84,2.64-2.1.43-4.17,1.19-6.13,2.05-7.4-.52-11.65-7.7-18.7-9.06,0-.05.01-.09-.02-.14-.66-1.14-.51-2.79.69-3.52,1.39-.85,2.88.21,3.52,1.43.06.11.16.15.26.16.13.18.45.16.52-.13.09-.38.3-.74.58-1.04.21.04.45-.07.42-.34.38-.24.82-.38,1.28-.3,1.1.18,1.65,1.29,1.57,2.31-.03.38.58.58.68.17.37-1.43-.56-3.01-2.04-3.3-.57-.11-1.12-.01-1.6.23-.66-4.29-.71-8.49-.19-12.8,1.04-.2,1.87-1.08,2.07-2.15.26-1.39-.73-2.61-2.07-2.86-1.31-.25-2.72.43-3.06,1.77-.35,1.38.44,2.96,1.84,3.3.18.04.29-.05.36-.17.04.09.11.16.23.17.07,0,.13,0,.2,0-.89,4.36-.9,8.88-.06,13.25-.24.24-.44.52-.58.83-.66-1.52-2.85-2.19-4.29-1.45-1.58.81-2.13,3.01-1.17,4.48-.84-.1-1.71-.14-2.64-.06-.09,0-.18.03-.26.04.03-.03.04-.07.02-.13-2.64-5.78-2.1-14.48-4.54-21.09,2.09-9.39,8.03-20.29,19.22-19.63ZM2387.69,1008.23s-.07,0-.1,0c-.64-.57-.99-1.38-.78-2.27.26-1.09,1.34-1.52,2.34-1.16.91.33,1.58,1.23,1.19,2.21-.37.94-1.5,1.57-2.48,1.24-.02,0-.04,0-.06,0-.04-.02-.08-.02-.11-.01ZM2366.1,1004.97c-.12.05-.23.11-.37.13-.08.01-.13.06-.18.11-.03-.1-.09-.19-.21-.24-.91-.4-1.5-1.37-1.19-2.36.28-.9,1.3-1.17,2.12-.89,1.55.53,1.24,2.39.1,3.11-.09-.07-.25-.04-.28.1,0,.01,0,.02,0,.04ZM2379.91,968.53c-2.47,5.12-7.75,9.36-12.25,12.75-5.96,1.5-11.29,6.74-14.08,13.53-.12-.13-.31-.19-.47-.05-.51.5-.91,1.07-1.51,1.47-.56.37-1.19.57-1.85.68-.9-1.05-2-1.96-3.35-2.68-.48-.26-.96-.46-1.44-.63,11.36-9.38,22.97-17.91,35.32-25.88-.1.24-.21.51-.36.82ZM2351.92,1000.43c-.49-1.1-1.09-2.12-1.81-3.04,1.09-.13,2.25-.58,3-1.37-.51,1.42-.92,2.9-1.19,4.42ZM2367.57,969.9c2.83-1.06,5.71-1.99,8.63-2.77,2.56-.69,4.59-1.9,4.37-.39-13.09,7.01-25.54,15.91-36.3,26.11-.15.14-.18.31-.15.47-2.46-.64-4.95-.25-7.29,1.18,0,0-.02.01-.03.02,2.58-12.96,19.54-20.41,30.78-24.62ZM2322.08,1024.01c-3.93-4.55-7.59-12.12-2.34-16.68,2.72-2.36,5.82-1.62,8.88-3.42,1.62-.95,2.84-2.36,4.16-3.66,1.57-1.54,2.9-3.4,4.91-4.42,5.69-2.91,10.56.68,13.15,5.45,3.61,6.64,1.99,14.83,5.88,21.54.01.03.04.04.06.05-1.64.21-3.24.72-4.67,1.51-1.52-2.62-3.18-5.14-4.45-7.93-1.58-3.46-2.75-7.05-3.58-10.75,0-.02-.02-.02-.03-.04.6-.51.94-1.34.91-2.12-.05-1.54-1.56-2.38-2.97-1.97-1.46.42-2.38,1.97-1.63,3.39.6,1.15,2.03,1.75,3.24,1.3,1.3,6.39,3.61,13.42,7.69,18.65-1.98,1.28-3.59,3.1-4.47,5.37-.12.3-.22.61-.31.91-4.39-2.51-8.37-5.21-11.99-8.72.07-.06.15-.12.22-.19.09-.09.1-.2.08-.3.05-.02.09-.03.13-.08,1.07-1.5.56-3.72-1.01-4.67-1.51-.92-3.36-.21-4.25,1.21-.86,1.36-.61,3.12.72,4.08,1.16.84,2.86.94,3.99.05,3.47,3.63,7.45,6.88,11.95,9.14.01,0,.02,0,.03,0-.57,2.3-.35,4.47.45,6.47-9.29-2.39-18.39-6.82-24.73-14.15ZM2342.78,1005.32c-.17.02-.27.12-.31.24-1.29-.46-1.94-2.35-.22-2.97,2.09-.76,2.44,2.46.53,2.73ZM2333.7,1021.84s.06.06.08.09c-1.89,1.07-4.66-.6-3.28-2.87.57-.94,1.75-1.56,2.81-1.03,1.27.64,1.7,2.32,1.05,3.52-.01.02,0,.05,0,.07-.07,0-.14,0-.21.06-.08.07-.17.12-.25.17-.03-.03-.06-.06-.09-.09-.06-.06-.16.02-.1.08ZM2349.68,1039.85s.09.01.14.02c.64.08.72-.85.11-.98-.3-.06-.6-.13-.9-.2-.07-.14-.16-.26-.22-.4-4.42-9.34,6.48-15.86,14.58-13.01,5.59,1.96,8.89,6.9,14.66,7.61.03.17.17.32.38.23.13-.06.26-.11.39-.16.28.02.57.03.86.03.3,0,.41-.29.37-.55,1.82-.71,3.7-1.26,5.65-1.52,1.33-.18,3.63-.15,5.86.32,0,.26.19.53.53.49.29-.04.57-.09.86-.13,1.92.6,3.6,1.6,4.26,3.18-.01.08-.02.15-.03.23,2.09,2.83,2.26,6.87-.05,9.79-1.49,1.89-3.6,3.13-5.78,4.07-1.19.51-2.41.62-3.58.46-1.38.43-2.78.8-4.18,1.09-8.36,1.71-17.37.94-24.96-3.09-3.34-1.77-6.81-4.2-8.93-7.47ZM2293.09,1077.8c-.11-.49,3.91-3.2,4.3-3.52,11.32-8.99,23.43-15.98,37.78-18.64.06-.01.08-.05.12-.08,7.41,1.95,14.73,4.28,21.95,6.97-8.94-1.41-17.67.33-26.47,2.81-12.72,3.58-25.4,7.56-37.63,12.57-.01-.04-.04-.07-.05-.12ZM2305.51,1079.74c-3.02-.18-7.14-.09-10.05-1.09-.45-.16-1.02-.09-1.49-.15,9.94-3.83,20.09-6.98,30.3-10.03,10.99-3.28,22.16-6.71,33.6-4.62-11.08.68-20.76,5.84-29.37,12.76-.12-.29-.43-.49-.8-.32-7.11,3.15-14.5,3.92-22.19,3.45ZM2366.6,1072.47c-.59,1.25-1.78,2.44-2.69,3.46-5.65,6.42-13.36,10.6-21.38,13.31-8.02,2.71-16.42,4.04-24.68,5.83-1.6.35-3.36,1-4.98,1.13-.33.03-.62.06-.88.09,13.47-8.41,27.49-15.89,42.14-22.03,3.23-1.36,7.29-3.86,10.79-4.24,2.7-.3,3.33-1.01,1.68,2.47ZM2369.46,1067.54c-20.31,7.96-39.9,16.8-58.44,28.32.03-.08.06-.15.09-.24.89-2.87,5.73-6.37,7.88-8.58,12.02-12.37,26.09-21.83,43.74-22.41,2.32.93,4.63,1.88,6.93,2.89-.06,0-.13-.01-.2.01ZM2356.68,1048.01c3.25,1.83,6.69,3.13,9.49,3.77,2.79.64,7,1.04,11.52.91.46,9.93,2.91,21.41,7.85,30.5-10.02-11.38-18.71-23.96-28.85-35.19ZM2403.35,1063.85c.89-.19,4.95,4.46,5.48,4.97,7.71,7.43,14.19,15.81,19.92,24.84.02.03.04.04.06.07-.88,7.47-.37,14.9,2.2,21.54-11.27-15.84-20.67-32.91-28.6-50.66.2-.38.5-.65.95-.75ZM2390.71,1107.29c9.43,2.12,17.77,7.36,26.84,10.42-.87-.05-1.63-.1-2.06-.16-4.9-.69-9.78-1.5-14.64-2.42-10.32-1.95-20.5-4.45-30.59-7.37,6.84-.46,13.33-2.07,20.45-.46ZM2370.21,1109.03c18.26,5.23,36.85,8.92,55.74,11.02.17.11.34.23.51.34-20.02,5.6-39.54.08-56.24-11.36ZM2404.19,1082c-1.01-3.97-1.66-8.03-1.87-12.12-.07-1.28-.44-3.27-.15-4.62,7.72,19.84,18.37,38.09,31.26,54.99.6,1.01,1.25,1.99,1.98,2.94-15.23-9.36-26.72-23.58-31.22-41.19ZM2432.52,1081.93c.63-2.16,6.38-17,8.07-17.86-3.84,19.99-3.42,40.23-2.8,60.47-9.03-11.9-9.36-28.65-5.26-42.61ZM2438.45,1114.61c-.56-16.63-.31-33.22,2.87-49.58.88,2.65,1.83,9.78,2.15,11.01.93,3.57,1.92,7.12,2.66,10.74,1.78,8.68,1.69,17.35-1.1,25.82-.63,1.92-5.38,11.91-5.7,11.65-1.52-1.24-.81-7.85-.88-9.63Z"/>
            <path class="cls-5" d="M2328.53,1000.67c-5.88-7.14-12.86-13.97-20.38-19.36-.05-.04-.1-.04-.15-.04-.28-.21-.56-.41-.84-.62.02-.02.04-.02.05-.05,5.39-11.7,7-28.68-5.96-36.27-1.66-.97-3.53-1.67-5.46-2.06-.85-10.23-5.34-19.86-13.18-26.62-2.51-2.17-5.83-4.69-9.38-3.6-1.55.48-1.89,1.47-3.14,2.28-3.23,2.12-5.36,3.1-9.11,3.17-1.03.02-2.03-.05-3.05.08-8.7,1.07-9.57,10.83-7.53,17.73,1.12,3.79,2.95,7.19,5.23,10.31-8.78-4.93-22.41-8.16-30.46-1.3-3.31,2.82-4.77,6.8-3.85,11.04.83,3.84,2.61,6.14,2.1,10.27-.52,4.21-2.58,7.54-3.55,11.6-2.33,9.78,5.77,16.81,15.1,17.11.91.03,1.82,0,2.74-.05-3.11,3.97-7.38,11.48-3.95,16.37,1.67,2.37,4.85,2.71,7.42,3.34,5.34,1.31,8.06,2.94,11.77,6.78,1.38,1.43,2.01,2.8,3.81,3.87,13.95,8.28,27.38-18.27,30.67-27.69.06-.18.02-.34-.07-.45,7.9-1.33,15.46-8.39,19.21-15.17,1.24,1.06,2.48,2.12,3.79,3.1.12.09.25.11.36.1,5.7,5.56,11.36,11.1,16.87,16.88.53.55,1.47-.13.96-.74ZM2226.68,990.44c-7.73-5.12-5.58-11.93-2.93-19.08.81-2.19,1.7-4.43,1.74-6.81.08-4.96-4.08-9.58-2.43-14.62,4.3-13.17,24.64-6.9,33.78-2.71,4.49,5.59,10.36,10.22,16.01,14.39.47.35,1.01-.36.55-.73-7.2-5.85-14.89-11.63-19.38-19.98-2.18-4.05-4.08-9.36-3.27-14.05,1.23-7.14,6.31-7.55,12.17-7.84,7.2-.36,13.38-7.18,20.15-.67,6.66,6.4,10.5,14.72,11.86,23.78-3.22-.48-6.56-.08-9.38,1.56-2.44,1.41-3.81,3.39-4.48,5.65-1.94-5.33-4.78-10.62-8.61-14.81,1.44-1.08,2.44-2.56,1.64-4.48-.75-1.82-2.81-2.66-4.57-1.74-1.57.82-2.46,2.78-1.63,4.42.51,1.01,1.62,1.78,2.77,1.9,0,.36.48.73.91.48.1-.06.2-.13.3-.19,3.67,5.12,6.76,10.23,8.79,16.27-.18,1.35-.15,2.76.01,4.18-.94-.25-2,.11-2.72.89-1.19,1.28-.85,3.02-.35,4.55-.07-.02-.14-.03-.21-.04-2.13-4.56-4.97-8.77-8.55-12.32.61-.63.97-1.59.99-2.38.04-1.5-1.04-2.85-2.61-2.77-1.44.07-2.91,1.32-2.92,2.82,0,1.56,1.37,2.42,2.76,2.83.08.09.17.16.3.16.07,0,.14-.02.21-.03.24.05.48.1.7.13.2.03.33-.09.4-.24,2.98,3.67,5.54,7.53,7.62,11.74-.9.07-1.78.42-2.27.93-.95,1-.94,2.41-.33,3.51-5.31-1.47-10.35-3.51-15.29-5.92.17-.24.31-.49.4-.78.05-.17.02-.32-.05-.44.12-1.11-.32-2.29-1.2-3.03-1.49-1.25-3.53-.64-4.46.96-.89,1.54-.57,3.64,1.16,4.41,1.16.52,2.6.27,3.57-.52.02-.01.03,0,.05-.02.02-.02.03-.05.05-.07.08-.07.16-.15.24-.23,4.72,2.83,9.76,4.93,15.03,6.5-1.6.03-3.18,1.61-3.42,3.18-.05.31-.04.61-.02.9-9.68.62-18.62-.33-27.89-2.97,0-.07.02-.12.02-.19-.02-.43-.52-.45-.77-.2.08-1.27-.66-2.58-1.85-3.2-1.87-.97-3.84.25-4.4,2.14-.57,1.88.28,4.04,2.31,4.52,1.82.44,4.36-.76,4.66-2.73,8.94,3.23,18.61,4.47,28.07,3.49.02,0,.03-.01.04-.01.64,1.91,2.77,3.29,4.71,3.55.29.04.37-.36.12-.48-1.63-.76-3.59-1.89-3.83-3.89-.22-1.81,1.63-3.33,3.32-2.63.56.23.98-.54.52-.91-.22-.18-.45-.3-.69-.39.1-.04.19-.1.25-.19.38.35.85.6,1.39.7.37.07.48-.48.16-.62-1.38-.61-2.19-2.79-.78-3.83.49-.36,1.14-.47,1.73-.37.02,0,.03.01.05.02.09.19.19.37.28.57.18.39.68.3.83,0,.11.07.23.14.35.19.3.13.7-.15.62-.49-.1-.46-.36-.78-.69-1.02-.24-.97-.44-2.02-.25-2.98.26-1.25,1.63-2.38,2.81-1.6.11.64.24,1.29.39,1.92,1.52,6.3,3.34,11.23.09,17.46-1.75,3.35-4.84,5.63-6.04,9.34,0,.02,0,.03-.01.05-.57.04-1.24.15-1.84.03-.11-.24-.41-.39-.69-.29-.02-.01-.04-.02-.06-.04-.63-.53-.54-1.42-.17-2.06.73-1.27,2.24-1.34,3.43-1.93.28-.14.27-.65-.1-.66-.24,0-.49,0-.74.03-1.46-.21-5.02-.76-4.47-2.82.51-1.91,2.78-1.77,4.3-2.03.53-.09.55-.91-.02-.96-2.15-.22-5.15.56-5.38,3.12-.09,1.05.4,1.75,1.16,2.22-.01,0-.03,0-.04.01-8.65,5.15-18.23,10.04-28.12,12.26-5.37,1.2-11.16,1.35-15.88-1.78ZM2271.88,933.62c-.09,0-.18,0-.27,0-.04-.04-.08-.08-.12-.12-.17-.17-.41-.07-.45.11-.75-.09-1.45-.42-1.89-1.12-.7-1.11-.13-2.51,1-3.07,1.2-.6,2.46.04,2.92,1.25.5,1.31-.25,2.24-1.2,2.96ZM2267.42,948.02c-.9-.32-1.81-.79-1.94-1.73-.13-.93.89-1.75,1.74-1.82,1.01-.09,1.55.85,1.47,1.75-.08.95-.6,1.36-1.27,1.8ZM2257.88,957.94s-.05.06-.06.1c-.42,1.12-1.76,1.67-2.88,1.28-1.15-.4-1.35-1.69-.84-2.67.54-1.04,1.79-1.56,2.78-.76.62.5.97,1.27,1,2.05ZM2240.17,968.13c-.64.69-1.48,1.12-2.57.91-1.43-.27-1.94-1.76-1.56-3.04.37-1.22,1.59-2.06,2.82-1.41,1.2.63,1.95,2.2,1.31,3.46-.01.03,0,.05,0,.07ZM2253.87,1020.05c-3.59-3.63-4.54-5.13-9.83-6.73-1.71-.52-5.46-.83-6.78-1.66-6.64-4.22-1.7-12.84,1.41-17.06.1-.13.11-.27.08-.39,11.44-1.01,23.2-7.81,32.58-13.42.19-.12.24-.28.21-.45.64.24,1.35.39,2.03.48-1.23.52-2.25,1.48-2.4,2.86-.11,1.01.28,1.67.88,2.07-3.01,3.16-6.6,5.48-10.68,7.05-.82-1.22-2.39-1.72-3.82-1.25-1.76.58-2.45,2.51-1.75,4.17.68,1.6,2.49,2.49,4.1,1.69,1.33-.66,2.13-2.29,1.58-3.7.08-.1.13-.21.14-.34,4.44-1.32,8.31-3.83,11.45-7.2.65.12,1.37.09,2.03-.07-.51,1.99-.49,3.96.18,5.65-5.55,5.22-11.36,10.1-17.35,14.81-.02-.06-.04-.12-.08-.18-1.01-1.4-3.24-1.41-4.54-.42-1.44,1.1-1.43,3.13-.3,4.45,1.08,1.26,2.92,1.59,4.23.49,1.12-.95,1.46-2.6.78-3.88,6.3-4.25,12.21-9.05,17.8-14.19.67,1.08,1.67,1.99,3.08,2.64,2.47,1.14,5.03,1.45,7.57,1.16-4.41,10.56-17.98,38.22-32.6,23.42ZM2256.98,995.21c-1-2.45,2.4-3.47,3.58-1.5.08.13.19.19.3.22.03,2.1-2.88,3.74-3.88,1.28ZM2257.18,1007.6c.06-.04.12-.08.18-.13.51,1.92-1.8,4.04-3.4,2.2-.74-.85-.81-2.16.19-2.83.97-.65,2.08-.4,2.91.33.02.02.04.02.05.03-.05.04-.1.08-.15.12-.18.14.03.41.22.28ZM2298.01,989.75c-2.04,1.52-4.43,2.77-6.84,3.61-3.4,1.18-11.6,2.85-13.95-1.84.27-.38,0-.9-.37-.97-.34-1.2-.39-2.72,0-4.65.86-4.25,5.35-7.24,7.14-11.1,1.23-2.65,1.49-5.21,1.12-8.09-.52-3.99-2.55-7.72-2.82-11.73-.77-11.42,12.06-13.85,19.79-8.13,9.68,7.15,8.83,19.98,5.65,30.34-.23-.06-.48.01-.59.3-1.9,4.99-4.85,9.06-9.14,12.26Z"/>
          </g>
          <path class="cls-5" d="M2274.97,491.09c-2.33-12.9-10.31-24.23-18.28-34.31,1.04-1.76,2.07-3.53,3.07-5.3.41-.72-.65-1.25-1.1-.61-2.37,3.41-4.67,6.89-6.94,10.41-17.66-2.99-35.64-.13-51.82,7.48-17.59,8.27-33.05,20.56-52.15,25.42-.56.14-.64.98-.13,1.24,18.41,9.13,39.6,11.38,59.17,4.5,8.26-2.9,16.02-7.27,22.78-12.83,7.37-6.06,12.18-15.1,19.25-21.27-11.71,18.47-22.81,37.64-37.65,53.6-.03-.05-.05-.1-.11-.14-.44-.24-.88-.45-1.31-.67-.03-.03-.08-.04-.12-.06-21.45-10.65-44.18,5.57-64.93,10.66-.51.12-.49.95.03,1.04,15.81,2.72,37.61,9.02,53.23,1.82-8.8,7.89-17.93,15.58-27.44,22.77-2.33,1.28-4.62,2.7-6.78,4.27-8.02-7.18-18.49-11.32-29.19-12.27-14.2-1.26-26.74,6.57-40.69,5.81-.51-.03-.81.74-.4,1.05,17.91,14.05,41.58,18.14,62.93,11.24-7.49,5.03-15.2,9.7-23.13,13.85-.03-.15-.2-.26-.36-.25.11-.34-.4-.73-.77-.43-.15.12-.3.23-.45.33-6.06-3.73-12.88-5.78-20.02-6.14-8.51-.43-16.65,2.43-25.12,2.67-.44.01-.77.66-.36.96,7.04,5.19,13.92,9.87,22.91,9.32-6.88,4.13-12.72,9.74-20.07,13.14-.47.22-.29.96.17,1.06,17.51,3.72,35.2-4.54,44.07-20,.05-.08.07-.16.07-.23,7.65-3.57,15.08-7.77,22.3-12.38-.68.89-1.31,1.81-1.88,2.77-5.57,9.32-7.11,21.76-9.71,32.16-.19.78.74,1.16,1.28.69,2.73-2.37,7.51-2.6,10.84-3.78,2.71-.97,5.38-2.1,7.91-3.48,5.06-2.76,9.66-6.43,13.16-11.05,8.1-10.7,6.88-22.53,4.09-34.88-.11-.48-.64-.45-.89-.15-.01-.05-.03-.1-.06-.14,8.57-6.87,16.81-14.1,24.7-21.35,4.23-3.89,8.09-8.03,11.71-12.35-11.35,20.19-15.86,44.28-6.66,66.35.26.62,1.34.78,1.46-.05,2.37-16.32,19.31-25.12,23.02-41.05,2.87-12.34-1.35-25.29-10.25-34.1-.17-.17-.37-.19-.54-.13,2.9-3.93,5.7-7.96,8.45-12.07,6.99-10.43,14.2-20.88,20.85-31.6-13.09,24.34-7.87,54.18,12.8,73.09.38.34,1.14.21,1.22-.36,2.05-15.04,10.65-28.75,7.84-44.31ZM2097.23,574.99c12.27-2.11,22.54-1.29,33.76,3.91-.03.02-.06.02-.09.04-13.77-.05-27.68.81-41.06-2.83,1.84-.69,5.79-.86,7.38-1.13ZM2097.38,582.2c-1.16-.55-8.74-4.92-8.43-5.47.05-.08.12-.16.2-.23,12.67,4.11,26.42,3.55,39.66,3.29-2.86.81-6.01.49-9.02,1.06-3.16.6-6.13,1.87-8.94,3.39-.33.18-.64.38-.96.56-.01-.2-.15-.38-.41-.36-4.27.32-8.2-.36-12.12-2.24ZM2109.69,597.02c-3.98,1.28-8.17,1.89-12.34,1.92-.49,0-4.15.17-5.29-.33,8.9-2.93,17.85-5.93,26.52-9.48,3.79-1.55,7.46-3.35,10.58-5.88-5.09,6.32-11.53,11.22-19.46,13.77ZM2091.9,598.12c.87-.68,4.5-2.75,4.8-2.96,6.74-4.6,12.97-10.64,21.02-12.91,4.53-1.28,9.45-.32,13.52-2.51.09,0,.18,0,.27,0-10.54,9.84-26.31,13.44-39.62,18.39ZM2109.36,551.82c6.08-1.69,11.98-3.54,18.34-3.83,13.21-.61,25,3.98,35.52,11.52-.11.08-.22.16-.33.25-21.42-3.03-43.19-.78-64.31-5.95,3.68-.6,10.33-1.85,10.78-1.98ZM2129.92,566.95c-5.76-.49-11.47-1.71-16.91-3.65-1.97-.7-17.35-6.88-16.84-9.21,0,.04.25.01.67-.04,20.91,6.23,43.25,4.65,64.79,6.69-.73.6-1.43,1.21-2.12,1.86-9.41,3.67-19.46,5.21-29.6,4.35ZM2145.87,600.19c-.13.03-.25.07-.31.1.27-.62,1.88-5.46,2.12-6.38,1.37-5.27,2.56-10.62,4.19-15.82,2.03-6.5,5.67-11.19,10.12-15.24.76-.31,1.51-.62,2.26-.97.4-.19.35-.59.12-.85,5.08-3.55,10.03-7.29,14.89-11.15-.72,20.24-17.98,39.05-33.39,50.31ZM2180.42,550.23c2.43,12.56,3.15,24.64-5.89,34.99-3.69,4.23-8.3,7.37-13.32,9.79-3.22,1.56-9.14,4.55-13.28,4.88,15.59-10.77,31.78-30.13,32.49-49.66ZM2174.1,520.3c11.15-3.83,22.84-5.72,33.94-1.44-19.66,5.59-39.58,8.62-59.9,10.47,3.73-1.72,23.6-8.21,25.96-9.02ZM2210.5,520.12c-.21-.23-.66-.29-.9.05-6.54,9.22-16.75,13.62-27.87,14.23-6.06.34-12.12-.47-18.07-1.51-1.31-.23-13.59-2.41-15.78-3.06,20.88-.5,41.72-4.44,61.73-10.24.03,0,.05-.03.08-.04.32.14.64.27.95.42-.05.05-.09.1-.14.15ZM2230.79,546.68c-4.93,10.76-15.62,18-19.48,29.37-.91,2.68-.77,3.3-1.08,1.93-.11-12.04,3.32-23,6.81-34.51,3.51-11.57,5.96-23.36,7.25-35.37,9.6,10.28,12.43,25.67,6.5,38.59ZM2214.67,546.97c-2.75,9.01-5.52,18.13-5.38,27.52-.95-3.36-1.63-6.79-2.05-10.26-.9-7.41-.48-15,.95-22.32,2.37-12.15,7.63-23.28,14.18-33.65.19-.25.38-.5.57-.75-1.38,13.53-4.31,26.46-8.27,39.46ZM2234.92,480.28c-5.96,6.17-13.03,11.28-20.73,15.04-9.53,4.65-20.01,7.15-30.61,7.33-5.29.09-10.59-.41-15.77-1.46-2.98-.6-14.91-2.73-16.22-5.3-.28-.54-.51-.79-.67-.9.21,0,.61-.1,1.23-.47,33.03-.21,66.06-10.63,94.08-28-4.05,4.28-7.19,9.49-11.31,13.75ZM2153.48,493.8c1.62-.7,3.71-1.06,5.28-1.68,3.51-1.39,6.93-3.02,10.29-4.75,7.69-3.96,15.02-8.57,22.6-12.74,18.56-10.21,37.85-14.62,58.87-12.49-29.45,19.21-62.21,29.2-97.04,31.65ZM2256.52,459.18c1.13-.44,5.07,6.37,6,7.77,5.27,7.99,10.07,16.77,11.34,26.39,1.35,10.15-2.28,19.5-5.21,29.01-.77,2.51-1.37,5.05-2.09,7.57-.19.68-.32,1.22-.41,1.65-6.7-18.37-8.71-37.78-9.33-57.25-.05-1.54-1.07-14.85-.3-15.15ZM2254.57,519.35c-10.45-18.69-9.38-41.11,1.11-59.47.35,24.66,1.27,49.54,9.81,72.93-.3-.12-.81-.54-1.78-1.17-3.74-2.45-6.98-8.43-9.14-12.29Z"/>
        </g>
      </g>
    </g>
  </g>
</svg>